<svg xmlns="http://www.w3.org/2000/svg" viewBox="0 0 1600 1200" width="1600" height="1200" role="img" aria-label="Bonfire night, placeholder artwork">
  <defs>
    <linearGradient id="sky" x1="0" y1="0" x2="0" y2="1">
      <stop offset="0%" stop-color="#111b28"/>
      <stop offset="100%" stop-color="#2b3a4a"/>
    </linearGradient>
    <linearGradient id="sea" x1="0" y1="0" x2="0" y2="1">
      <stop offset="0%" stop-color="#1b3244"/>
      <stop offset="100%" stop-color="#0d1c28"/>
    </linearGradient>
    <linearGradient id="water" x1="0" y1="0" x2="1" y2="1">
      <stop offset="0%" stop-color="#8fd0d8"/>
      <stop offset="100%" stop-color="#2f8ba0"/>
    </linearGradient>
    <radialGradient id="glow">
      <stop offset="0%" stop-color="#f4e6c4" stop-opacity="0.6"/>
      <stop offset="100%" stop-color="#f4e6c4" stop-opacity="0"/>
    </radialGradient>
    <linearGradient id="veil" x1="0" y1="0" x2="0" y2="1">
      <stop offset="0%" stop-color="#000000" stop-opacity="0.14"/>
      <stop offset="42%" stop-color="#000000" stop-opacity="0"/>
      <stop offset="100%" stop-color="#000000" stop-opacity="0.34"/>
    </linearGradient>
  </defs>
  
  <g transform="translate(1600 0) scale(-1 1)">
  <rect width="1600" height="1200" fill="url(#sky)"/>
  <circle cx="831.81" cy="426.5" r="2.6" fill="#ffffff" opacity="0.54"/><circle cx="711.25" cy="333.29" r="1.08" fill="#ffffff" opacity="0.21"/><circle cx="1099.99" cy="278.47" r="0.97" fill="#ffffff" opacity="0.44"/><circle cx="734.67" cy="123.42" r="2.17" fill="#ffffff" opacity="0.56"/><circle cx="1467.14" cy="256.72" r="1.17" fill="#ffffff" opacity="0.38"/><circle cx="383.48" cy="222.11" r="2.13" fill="#ffffff" opacity="0.34"/><circle cx="1355.16" cy="163.21" r="1.25" fill="#ffffff" opacity="0.36"/><circle cx="1133.09" cy="290.96" r="1.23" fill="#ffffff" opacity="0.7"/><circle cx="669.13" cy="13.99" r="1.04" fill="#ffffff" opacity="0.39"/><circle cx="239.15" cy="372.83" r="1.4" fill="#ffffff" opacity="0.53"/><circle cx="1524.07" cy="145.02" r="2.06" fill="#ffffff" opacity="0.53"/><circle cx="25.8" cy="86.42" r="1.47" fill="#ffffff" opacity="0.71"/><circle cx="155.92" cy="307.33" r="1.58" fill="#ffffff" opacity="0.33"/><circle cx="1473.37" cy="219.53" r="1.36" fill="#ffffff" opacity="0.26"/><circle cx="528.43" cy="188.12" r="2.41" fill="#ffffff" opacity="0.57"/><circle cx="1030.37" cy="8.3" r="2.1" fill="#ffffff" opacity="0.56"/><circle cx="1273.52" cy="239.73" r="1.92" fill="#ffffff" opacity="0.58"/><circle cx="1026.04" cy="310.73" r="2.65" fill="#ffffff" opacity="0.71"/><circle cx="926.77" cy="329.09" r="1.62" fill="#ffffff" opacity="0.36"/><circle cx="438.64" cy="187.39" r="2.43" fill="#ffffff" opacity="0.45"/><circle cx="1290.58" cy="89.27" r="2.47" fill="#ffffff" opacity="0.62"/><circle cx="1196.82" cy="472.31" r="1.25" fill="#ffffff" opacity="0.5"/><circle cx="1514.74" cy="153.26" r="2.21" fill="#ffffff" opacity="0.58"/><circle cx="821.9" cy="19.13" r="1.95" fill="#ffffff" opacity="0.27"/><circle cx="1229.6" cy="306.06" r="2.76" fill="#ffffff" opacity="0.64"/><circle cx="1116.96" cy="342.92" r="1.85" fill="#ffffff" opacity="0.61"/><circle cx="1067.34" cy="103.6" r="1.8" fill="#ffffff" opacity="0.69"/><circle cx="524.92" cy="300.7" r="1.17" fill="#ffffff" opacity="0.38"/><circle cx="1451.27" cy="40.17" r="1.51" fill="#ffffff" opacity="0.36"/><circle cx="885.78" cy="189.91" r="1.42" fill="#ffffff" opacity="0.32"/><circle cx="529.49" cy="312.5" r="1.29" fill="#ffffff" opacity="0.42"/><circle cx="908.03" cy="140.66" r="1.86" fill="#ffffff" opacity="0.26"/><circle cx="1591.3" cy="153.88" r="2.24" fill="#ffffff" opacity="0.6"/><circle cx="73.52" cy="437.64" r="1.37" fill="#ffffff" opacity="0.27"/><circle cx="1510.91" cy="62.97" r="1.72" fill="#ffffff" opacity="0.24"/><circle cx="1520.97" cy="391.41" r="2.27" fill="#ffffff" opacity="0.39"/><circle cx="470.38" cy="385.51" r="2.63" fill="#ffffff" opacity="0.59"/><circle cx="154.26" cy="475.2" r="1.08" fill="#ffffff" opacity="0.42"/><circle cx="398.29" cy="386.56" r="0.8" fill="#ffffff" opacity="0.53"/><circle cx="1578.57" cy="421.75" r="1.57" fill="#ffffff" opacity="0.48"/><circle cx="22.88" cy="184.38" r="0.9" fill="#ffffff" opacity="0.69"/><circle cx="1119.61" cy="19.79" r="1.35" fill="#ffffff" opacity="0.67"/><circle cx="764.81" cy="39.81" r="2.45" fill="#ffffff" opacity="0.74"/><circle cx="208.19" cy="36.65" r="0.89" fill="#ffffff" opacity="0.23"/><circle cx="1563.41" cy="364.87" r="2.16" fill="#ffffff" opacity="0.39"/><circle cx="1467.72" cy="65.24" r="1.67" fill="#ffffff" opacity="0.54"/><circle cx="952.95" cy="231.37" r="2.52" fill="#ffffff" opacity="0.24"/><circle cx="847.31" cy="472.4" r="2.69" fill="#ffffff" opacity="0.34"/><circle cx="710.37" cy="449.08" r="1.31" fill="#ffffff" opacity="0.59"/><circle cx="829.95" cy="163.94" r="2.77" fill="#ffffff" opacity="0.73"/><circle cx="1451.18" cy="309.82" r="1.83" fill="#ffffff" opacity="0.46"/><circle cx="1492.3" cy="420.06" r="1.87" fill="#ffffff" opacity="0.38"/><circle cx="131.2" cy="15.15" r="2.45" fill="#ffffff" opacity="0.45"/><circle cx="1262.55" cy="289.3" r="1.71" fill="#ffffff" opacity="0.63"/><circle cx="305.83" cy="102.99" r="1.39" fill="#ffffff" opacity="0.63"/><circle cx="1462.81" cy="334.55" r="1.84" fill="#ffffff" opacity="0.68"/><circle cx="1476.64" cy="235.22" r="1.85" fill="#ffffff" opacity="0.24"/><circle cx="1561.5" cy="61.24" r="1.56" fill="#ffffff" opacity="0.52"/><circle cx="945.59" cy="303.51" r="2.52" fill="#ffffff" opacity="0.63"/><circle cx="796.58" cy="414.01" r="1.59" fill="#ffffff" opacity="0.31"/>
  
  <circle cx="256" cy="163.2" r="40.91" fill="#f4e6c4" opacity="0.95"/>
  
  <rect x="0" y="480" width="1600" height="264" fill="url(#sea)"/>
  <rect x="0" y="480" width="1600" height="3.82" fill="#ffffff" opacity="0.4"/>
  <path d="M95.73 534.55 q 84.22 -19.09 168.44 0 t 168.44 0" fill="none" stroke="#ffffff" stroke-opacity="0.26" stroke-width="6" stroke-linecap="round"/><path d="M550.91 563.88 q 80.77 -19.09 161.53 0 t 161.53 0" fill="none" stroke="#ffffff" stroke-opacity="0.26" stroke-width="6" stroke-linecap="round"/><path d="M559.04 593.21 q 166.07 -19.09 332.14 0 t 332.14 0" fill="none" stroke="#ffffff" stroke-opacity="0.26" stroke-width="6" stroke-linecap="round"/><path d="M371.93 622.55 q 140.58 -19.09 281.16 0 t 281.16 0" fill="none" stroke="#ffffff" stroke-opacity="0.26" stroke-width="6" stroke-linecap="round"/><path d="M581.61 651.88 q 72.13 -19.09 144.25 0 t 144.25 0" fill="none" stroke="#ffffff" stroke-opacity="0.26" stroke-width="6" stroke-linecap="round"/><path d="M441.82 681.21 q 114 -19.09 228.01 0 t 228.01 0" fill="none" stroke="#ffffff" stroke-opacity="0.26" stroke-width="6" stroke-linecap="round"/><path d="M173.52 710.55 q 106.3 -19.09 212.59 0 t 212.59 0" fill="none" stroke="#ffffff" stroke-opacity="0.26" stroke-width="6" stroke-linecap="round"/><path d="M261.65 739.88 q 138.9 -19.09 277.8 0 t 277.8 0" fill="none" stroke="#ffffff" stroke-opacity="0.26" stroke-width="6" stroke-linecap="round"/><path d="M317.67 769.21 q 87.14 -19.09 174.27 0 t 174.27 0" fill="none" stroke="#ffffff" stroke-opacity="0.26" stroke-width="6" stroke-linecap="round"/>
  <path d="M0 744 q 480 -48 960 0 t 640 0 V 1200 H 0 Z" fill="#5d5240"/>
  
  <g transform="translate(800 1056) scale(2.41)">
    <ellipse cx="0" cy="8" rx="180" ry="34" fill="#e0a75c" opacity="0.18"/>
    <path d="M-76 6 l 152 -26 M-76 -20 l 152 26 M-42 8 l 84 -48" stroke="#6b4f33" stroke-width="15" stroke-linecap="round"/>
    <path d="M0 -160 c 44 50 50 84 26 110 c -9 10 -26 18 -26 18 c 0 0 -17 -8 -26 -18 c -24 -26 -18 -60 26 -110 Z" fill="#e0a75c"/>
    <path d="M0 -108 c 24 30 26 50 12 64 c -5 6 -12 9 -12 9 c 0 0 -7 -3 -12 -9 c -14 -14 -12 -34 12 -64 Z" fill="#f4e6c4" opacity="0.92"/>
    <circle cx="-60.69" cy="-301.64" r="2.36" fill="#e0a75c" opacity="0.73"/><circle cx="-21.82" cy="-173.94" r="2.88" fill="#e0a75c" opacity="0.59"/><circle cx="-25.16" cy="-207.42" r="4.42" fill="#e0a75c" opacity="0.35"/><circle cx="78.93" cy="-146.01" r="3.83" fill="#e0a75c" opacity="0.47"/><circle cx="-41.55" cy="-172.41" r="1.6" fill="#e0a75c" opacity="0.75"/><circle cx="-77.45" cy="-271.11" r="1.82" fill="#e0a75c" opacity="0.84"/><circle cx="14.45" cy="-302.53" r="4.59" fill="#e0a75c" opacity="0.33"/><circle cx="30.43" cy="-184.6" r="2.82" fill="#e0a75c" opacity="0.49"/><circle cx="-45.69" cy="-174.8" r="3.52" fill="#e0a75c" opacity="0.72"/><circle cx="13.49" cy="-253.95" r="2.9" fill="#e0a75c" opacity="0.47"/><circle cx="-22.83" cy="-321.27" r="2.34" fill="#e0a75c" opacity="0.75"/><circle cx="79.13" cy="-224.89" r="2.99" fill="#e0a75c" opacity="0.56"/><circle cx="31.84" cy="-269.52" r="3.44" fill="#e0a75c" opacity="0.76"/><circle cx="-34.95" cy="-141.14" r="2.32" fill="#e0a75c" opacity="0.72"/><circle cx="-33.3" cy="-266.32" r="2.11" fill="#e0a75c" opacity="0.71"/><circle cx="-51" cy="-309.1" r="3.59" fill="#e0a75c" opacity="0.34"/><circle cx="20" cy="-140.45" r="1.82" fill="#e0a75c" opacity="0.38"/><circle cx="-38.57" cy="-236.6" r="2.26" fill="#e0a75c" opacity="0.66"/><circle cx="2.99" cy="-169.41" r="1.79" fill="#e0a75c" opacity="0.42"/><circle cx="-59.24" cy="-203.66" r="3.16" fill="#e0a75c" opacity="0.85"/><circle cx="29.64" cy="-225.43" r="4.59" fill="#e0a75c" opacity="0.33"/><circle cx="7.37" cy="-291.35" r="4.35" fill="#e0a75c" opacity="0.31"/>
  </g>
  
  <g transform="translate(384 1116) scale(1.91)" fill="#f1e7d6" opacity="0.68">
    <circle cx="0" cy="-92" r="13"/>
    <path d="M-12 -76 h24 l9 48 h-42 Z"/>
    <rect x="-13" y="-28" width="10" height="30" rx="4"/>
    <rect x="3" y="-28" width="10" height="30" rx="4"/>
  </g>
  
  <g transform="translate(1248 1104) scale(2)" fill="#f1e7d6" opacity="0.68">
    <circle cx="0" cy="-92" r="13"/>
    <path d="M-12 -76 h24 l9 48 h-42 Z"/>
    <rect x="-13" y="-28" width="10" height="30" rx="4"/>
    <rect x="3" y="-28" width="10" height="30" rx="4"/>
  </g>
  
  <g transform="translate(1056 1164) scale(2.2)" fill="#f1e7d6" opacity="0.68">
    <circle cx="0" cy="-92" r="13"/>
    <path d="M-12 -76 h24 l9 48 h-42 Z"/>
    <rect x="-13" y="-28" width="10" height="30" rx="4"/>
    <rect x="3" y="-28" width="10" height="30" rx="4"/>
  </g>
  
  <g transform="translate(112 984) scale(1.78)">
    <circle cx="0" cy="-22" r="40" fill="#f4e6c4" opacity="0.22"/>
    <rect x="-13" y="-36" width="26" height="36" rx="4" fill="none" stroke="#f1e7d6" stroke-width="3.4" opacity="0.75"/>
    <path d="M-13 -36 h26 M0 -46 v10" stroke="#f1e7d6" stroke-width="3.4" opacity="0.75" fill="none"/>
    <rect x="-7" y="-30" width="14" height="24" rx="3" fill="#f4e6c4"/>
  </g>
  
  <g transform="translate(1488 948) scale(1.68)">
    <circle cx="0" cy="-22" r="40" fill="#f4e6c4" opacity="0.22"/>
    <rect x="-13" y="-36" width="26" height="36" rx="4" fill="none" stroke="#f1e7d6" stroke-width="3.4" opacity="0.75"/>
    <path d="M-13 -36 h26 M0 -46 v10" stroke="#f1e7d6" stroke-width="3.4" opacity="0.75" fill="none"/>
    <rect x="-7" y="-30" width="14" height="24" rx="3" fill="#f4e6c4"/>
  </g></g>
  <rect width="1600" height="1200" fill="url(#veil)"/>
  <g>
    <g transform="translate(60.8 1152.12) scale(0.88)" fill="none" stroke="#ffffff" stroke-width="2.4" opacity="0.8">
    <path d="M0 -22 C 7 -9, 9 -7, 22 0 C 9 7, 7 9, 0 22 C -7 9, -9 7, -22 0 C -9 -7, -7 -9, 0 -22 Z"/>
    <circle cx="0" cy="0" r="6.5"/>
  </g>
    <text x="95" y="1165.8"
      font-family="Jost, Futura, 'Helvetica Neue', Helvetica, Arial, sans-serif"
      font-size="22.8" letter-spacing="5.93"
      fill="#ffffff" fill-opacity="0.82">BONFIRE NIGHT</text>
  </g>
</svg>
