<svg xmlns="http://www.w3.org/2000/svg" viewBox="0 0 1600 1200" width="1600" height="1200" role="img" aria-label="Bonfire night, placeholder artwork">
  <defs>
    <linearGradient id="sky" x1="0" y1="0" x2="0" y2="1">
      <stop offset="0%" stop-color="#111b28"/>
      <stop offset="100%" stop-color="#2b3a4a"/>
    </linearGradient>
    <linearGradient id="sea" x1="0" y1="0" x2="0" y2="1">
      <stop offset="0%" stop-color="#1b3244"/>
      <stop offset="100%" stop-color="#0d1c28"/>
    </linearGradient>
    <linearGradient id="water" x1="0" y1="0" x2="1" y2="1">
      <stop offset="0%" stop-color="#8fd0d8"/>
      <stop offset="100%" stop-color="#2f8ba0"/>
    </linearGradient>
    <radialGradient id="glow">
      <stop offset="0%" stop-color="#f4e6c4" stop-opacity="0.6"/>
      <stop offset="100%" stop-color="#f4e6c4" stop-opacity="0"/>
    </radialGradient>
    <linearGradient id="veil" x1="0" y1="0" x2="0" y2="1">
      <stop offset="0%" stop-color="#000000" stop-opacity="0.14"/>
      <stop offset="42%" stop-color="#000000" stop-opacity="0"/>
      <stop offset="100%" stop-color="#000000" stop-opacity="0.34"/>
    </linearGradient>
  </defs>
  
  <g>
  <rect width="1600" height="1200" fill="url(#sky)"/>
  <circle cx="1228.63" cy="126.98" r="1.31" fill="#ffffff" opacity="0.64"/><circle cx="622.14" cy="329.4" r="1.31" fill="#ffffff" opacity="0.74"/><circle cx="839.76" cy="304.29" r="2.07" fill="#ffffff" opacity="0.21"/><circle cx="1363.81" cy="349.05" r="1.11" fill="#ffffff" opacity="0.49"/><circle cx="479.53" cy="209.33" r="1.65" fill="#ffffff" opacity="0.59"/><circle cx="26.27" cy="144.32" r="2.32" fill="#ffffff" opacity="0.25"/><circle cx="1550.35" cy="176.57" r="1.9" fill="#ffffff" opacity="0.5"/><circle cx="973.57" cy="178.79" r="2.47" fill="#ffffff" opacity="0.54"/><circle cx="798.31" cy="250.76" r="0.96" fill="#ffffff" opacity="0.53"/><circle cx="905.31" cy="181.7" r="2.76" fill="#ffffff" opacity="0.21"/><circle cx="706.7" cy="391.74" r="2.5" fill="#ffffff" opacity="0.47"/><circle cx="913.64" cy="291.42" r="2.14" fill="#ffffff" opacity="0.21"/><circle cx="1447.81" cy="293.86" r="1.5" fill="#ffffff" opacity="0.46"/><circle cx="914.78" cy="408.92" r="2.3" fill="#ffffff" opacity="0.7"/><circle cx="80.52" cy="256.09" r="1.09" fill="#ffffff" opacity="0.3"/><circle cx="512.04" cy="204.53" r="1.69" fill="#ffffff" opacity="0.47"/><circle cx="290.62" cy="444.22" r="2.68" fill="#ffffff" opacity="0.45"/><circle cx="874.61" cy="218.51" r="1.58" fill="#ffffff" opacity="0.64"/><circle cx="364.78" cy="188.27" r="2.59" fill="#ffffff" opacity="0.75"/><circle cx="352.01" cy="155.06" r="0.95" fill="#ffffff" opacity="0.22"/><circle cx="22.55" cy="440.7" r="1.7" fill="#ffffff" opacity="0.64"/><circle cx="502" cy="350.34" r="1.5" fill="#ffffff" opacity="0.36"/><circle cx="585.83" cy="79.38" r="2.38" fill="#ffffff" opacity="0.37"/><circle cx="1010.06" cy="47.43" r="1.47" fill="#ffffff" opacity="0.55"/><circle cx="93.12" cy="390.98" r="1.46" fill="#ffffff" opacity="0.6"/><circle cx="898.37" cy="94.18" r="1.02" fill="#ffffff" opacity="0.35"/><circle cx="263.64" cy="146.34" r="0.88" fill="#ffffff" opacity="0.28"/><circle cx="1372.96" cy="298.55" r="1.2" fill="#ffffff" opacity="0.63"/><circle cx="1579.14" cy="62.06" r="1.27" fill="#ffffff" opacity="0.7"/><circle cx="908.47" cy="215.13" r="1.55" fill="#ffffff" opacity="0.23"/><circle cx="318.29" cy="395.16" r="0.97" fill="#ffffff" opacity="0.52"/><circle cx="670.18" cy="76.52" r="1.69" fill="#ffffff" opacity="0.56"/><circle cx="375.77" cy="310.24" r="2.38" fill="#ffffff" opacity="0.35"/><circle cx="248.26" cy="418.12" r="0.81" fill="#ffffff" opacity="0.67"/><circle cx="747.74" cy="293.92" r="1.43" fill="#ffffff" opacity="0.44"/><circle cx="125.5" cy="90.58" r="1.05" fill="#ffffff" opacity="0.4"/><circle cx="352.28" cy="41.26" r="1.95" fill="#ffffff" opacity="0.22"/><circle cx="948.92" cy="404.92" r="1.77" fill="#ffffff" opacity="0.48"/><circle cx="1043.24" cy="368.46" r="1.1" fill="#ffffff" opacity="0.44"/><circle cx="1156.04" cy="39.75" r="2.14" fill="#ffffff" opacity="0.62"/><circle cx="663.63" cy="261.39" r="1.97" fill="#ffffff" opacity="0.49"/><circle cx="1129.37" cy="81.42" r="2.31" fill="#ffffff" opacity="0.27"/><circle cx="620.04" cy="359.19" r="1.68" fill="#ffffff" opacity="0.71"/><circle cx="1383.37" cy="264.29" r="2.62" fill="#ffffff" opacity="0.5"/><circle cx="1228.84" cy="301.82" r="2.63" fill="#ffffff" opacity="0.3"/><circle cx="1317.87" cy="167.31" r="2.07" fill="#ffffff" opacity="0.23"/><circle cx="968.36" cy="20.21" r="2.67" fill="#ffffff" opacity="0.5"/><circle cx="1491.02" cy="48.59" r="2.04" fill="#ffffff" opacity="0.34"/><circle cx="133.77" cy="350.65" r="2.19" fill="#ffffff" opacity="0.47"/><circle cx="1453.82" cy="453.02" r="0.95" fill="#ffffff" opacity="0.55"/><circle cx="507.16" cy="41.49" r="1.57" fill="#ffffff" opacity="0.7"/><circle cx="1454.15" cy="68.01" r="1.59" fill="#ffffff" opacity="0.2"/><circle cx="50.84" cy="66.53" r="1.39" fill="#ffffff" opacity="0.66"/><circle cx="106.89" cy="62.64" r="2.47" fill="#ffffff" opacity="0.46"/><circle cx="1417.88" cy="475.28" r="2.07" fill="#ffffff" opacity="0.48"/><circle cx="1385.51" cy="222.18" r="1.83" fill="#ffffff" opacity="0.54"/><circle cx="1432.14" cy="453.47" r="1.66" fill="#ffffff" opacity="0.62"/><circle cx="1290.69" cy="479.19" r="2.34" fill="#ffffff" opacity="0.35"/><circle cx="1599.43" cy="411.19" r="2.2" fill="#ffffff" opacity="0.44"/><circle cx="979.18" cy="78.4" r="1.87" fill="#ffffff" opacity="0.32"/>
  
  <circle cx="256" cy="163.2" r="40.91" fill="#f4e6c4" opacity="0.95"/>
  
  <rect x="0" y="480" width="1600" height="264" fill="url(#sea)"/>
  <rect x="0" y="480" width="1600" height="3.82" fill="#ffffff" opacity="0.4"/>
  <path d="M634.66 534.55 q 64.35 -19.09 128.7 0 t 128.7 0" fill="none" stroke="#ffffff" stroke-opacity="0.26" stroke-width="6" stroke-linecap="round"/><path d="M597.97 563.88 q 94.75 -19.09 189.51 0 t 189.51 0" fill="none" stroke="#ffffff" stroke-opacity="0.26" stroke-width="6" stroke-linecap="round"/><path d="M289.39 593.21 q 105.2 -19.09 210.4 0 t 210.4 0" fill="none" stroke="#ffffff" stroke-opacity="0.26" stroke-width="6" stroke-linecap="round"/><path d="M21.33 622.55 q 118.03 -19.09 236.06 0 t 236.06 0" fill="none" stroke="#ffffff" stroke-opacity="0.26" stroke-width="6" stroke-linecap="round"/><path d="M544.38 651.88 q 122.02 -19.09 244.04 0 t 244.04 0" fill="none" stroke="#ffffff" stroke-opacity="0.26" stroke-width="6" stroke-linecap="round"/><path d="M417.43 681.21 q 79.41 -19.09 158.83 0 t 158.83 0" fill="none" stroke="#ffffff" stroke-opacity="0.26" stroke-width="6" stroke-linecap="round"/><path d="M300.93 710.55 q 146.89 -19.09 293.78 0 t 293.78 0" fill="none" stroke="#ffffff" stroke-opacity="0.26" stroke-width="6" stroke-linecap="round"/><path d="M380.24 739.88 q 153.08 -19.09 306.16 0 t 306.16 0" fill="none" stroke="#ffffff" stroke-opacity="0.26" stroke-width="6" stroke-linecap="round"/><path d="M202.28 769.21 q 109.96 -19.09 219.91 0 t 219.91 0" fill="none" stroke="#ffffff" stroke-opacity="0.26" stroke-width="6" stroke-linecap="round"/>
  <path d="M0 744 q 480 -48 960 0 t 640 0 V 1200 H 0 Z" fill="#5d5240"/>
  
  <g transform="translate(800 1056) scale(2.41)">
    <ellipse cx="0" cy="8" rx="180" ry="34" fill="#e0a75c" opacity="0.18"/>
    <path d="M-76 6 l 152 -26 M-76 -20 l 152 26 M-42 8 l 84 -48" stroke="#6b4f33" stroke-width="15" stroke-linecap="round"/>
    <path d="M0 -160 c 44 50 50 84 26 110 c -9 10 -26 18 -26 18 c 0 0 -17 -8 -26 -18 c -24 -26 -18 -60 26 -110 Z" fill="#e0a75c"/>
    <path d="M0 -108 c 24 30 26 50 12 64 c -5 6 -12 9 -12 9 c 0 0 -7 -3 -12 -9 c -14 -14 -12 -34 12 -64 Z" fill="#f4e6c4" opacity="0.92"/>
    <circle cx="-46.09" cy="-275.9" r="1.77" fill="#e0a75c" opacity="0.68"/><circle cx="-50.45" cy="-279.44" r="2.12" fill="#e0a75c" opacity="0.83"/><circle cx="-38.57" cy="-245.61" r="2.43" fill="#e0a75c" opacity="0.74"/><circle cx="35.29" cy="-210.27" r="3.68" fill="#e0a75c" opacity="0.43"/><circle cx="70.1" cy="-267.92" r="3.58" fill="#e0a75c" opacity="0.31"/><circle cx="-76.81" cy="-217.58" r="3.98" fill="#e0a75c" opacity="0.51"/><circle cx="-11.43" cy="-171.29" r="4.34" fill="#e0a75c" opacity="0.39"/><circle cx="3.68" cy="-304.68" r="2.23" fill="#e0a75c" opacity="0.58"/><circle cx="15.45" cy="-327.42" r="4.4" fill="#e0a75c" opacity="0.57"/><circle cx="-50.5" cy="-278.66" r="2.16" fill="#e0a75c" opacity="0.74"/><circle cx="30.25" cy="-241.43" r="1.64" fill="#e0a75c" opacity="0.81"/><circle cx="-7.66" cy="-178.38" r="3.37" fill="#e0a75c" opacity="0.42"/><circle cx="-4.1" cy="-224.81" r="3.83" fill="#e0a75c" opacity="0.83"/><circle cx="81.16" cy="-258.16" r="3.41" fill="#e0a75c" opacity="0.36"/><circle cx="78.32" cy="-236.94" r="3.44" fill="#e0a75c" opacity="0.82"/><circle cx="-79.92" cy="-300.99" r="2.74" fill="#e0a75c" opacity="0.53"/><circle cx="0.02" cy="-271.17" r="2.01" fill="#e0a75c" opacity="0.61"/><circle cx="-70.96" cy="-218.77" r="1.93" fill="#e0a75c" opacity="0.7"/><circle cx="39.23" cy="-176.76" r="3.22" fill="#e0a75c" opacity="0.37"/><circle cx="49.64" cy="-228.75" r="2.61" fill="#e0a75c" opacity="0.37"/><circle cx="36.96" cy="-273.44" r="2.77" fill="#e0a75c" opacity="0.66"/><circle cx="-76.5" cy="-149.77" r="3.93" fill="#e0a75c" opacity="0.48"/>
  </g>
  
  <g transform="translate(384 1116) scale(1.91)" fill="#f1e7d6" opacity="0.68">
    <circle cx="0" cy="-92" r="13"/>
    <path d="M-12 -76 h24 l9 48 h-42 Z"/>
    <rect x="-13" y="-28" width="10" height="30" rx="4"/>
    <rect x="3" y="-28" width="10" height="30" rx="4"/>
  </g>
  
  <g transform="translate(1248 1104) scale(2)" fill="#f1e7d6" opacity="0.68">
    <circle cx="0" cy="-92" r="13"/>
    <path d="M-12 -76 h24 l9 48 h-42 Z"/>
    <rect x="-13" y="-28" width="10" height="30" rx="4"/>
    <rect x="3" y="-28" width="10" height="30" rx="4"/>
  </g>
  
  <g transform="translate(1056 1164) scale(2.2)" fill="#f1e7d6" opacity="0.68">
    <circle cx="0" cy="-92" r="13"/>
    <path d="M-12 -76 h24 l9 48 h-42 Z"/>
    <rect x="-13" y="-28" width="10" height="30" rx="4"/>
    <rect x="3" y="-28" width="10" height="30" rx="4"/>
  </g>
  
  <g transform="translate(112 984) scale(1.78)">
    <circle cx="0" cy="-22" r="40" fill="#f4e6c4" opacity="0.22"/>
    <rect x="-13" y="-36" width="26" height="36" rx="4" fill="none" stroke="#f1e7d6" stroke-width="3.4" opacity="0.75"/>
    <path d="M-13 -36 h26 M0 -46 v10" stroke="#f1e7d6" stroke-width="3.4" opacity="0.75" fill="none"/>
    <rect x="-7" y="-30" width="14" height="24" rx="3" fill="#f4e6c4"/>
  </g>
  
  <g transform="translate(1488 948) scale(1.68)">
    <circle cx="0" cy="-22" r="40" fill="#f4e6c4" opacity="0.22"/>
    <rect x="-13" y="-36" width="26" height="36" rx="4" fill="none" stroke="#f1e7d6" stroke-width="3.4" opacity="0.75"/>
    <path d="M-13 -36 h26 M0 -46 v10" stroke="#f1e7d6" stroke-width="3.4" opacity="0.75" fill="none"/>
    <rect x="-7" y="-30" width="14" height="24" rx="3" fill="#f4e6c4"/>
  </g></g>
  <rect width="1600" height="1200" fill="url(#veil)"/>
  <g>
    <g transform="translate(60.8 1152.12) scale(0.88)" fill="none" stroke="#ffffff" stroke-width="2.4" opacity="0.8">
    <path d="M0 -22 C 7 -9, 9 -7, 22 0 C 9 7, 7 9, 0 22 C -7 9, -9 7, -22 0 C -9 -7, -7 -9, 0 -22 Z"/>
    <circle cx="0" cy="0" r="6.5"/>
  </g>
    <text x="95" y="1165.8"
      font-family="Jost, Futura, 'Helvetica Neue', Helvetica, Arial, sans-serif"
      font-size="22.8" letter-spacing="5.93"
      fill="#ffffff" fill-opacity="0.82">BONFIRE NIGHT</text>
  </g>
</svg>
