<svg xmlns="http://www.w3.org/2000/svg" viewBox="0 0 1600 1200" width="1600" height="1200" role="img" aria-label="Bonfire night, placeholder artwork">
  <defs>
    <linearGradient id="sky" x1="0" y1="0" x2="0" y2="1">
      <stop offset="0%" stop-color="#111b28"/>
      <stop offset="100%" stop-color="#2b3a4a"/>
    </linearGradient>
    <linearGradient id="sea" x1="0" y1="0" x2="0" y2="1">
      <stop offset="0%" stop-color="#1b3244"/>
      <stop offset="100%" stop-color="#0d1c28"/>
    </linearGradient>
    <linearGradient id="water" x1="0" y1="0" x2="1" y2="1">
      <stop offset="0%" stop-color="#8fd0d8"/>
      <stop offset="100%" stop-color="#2f8ba0"/>
    </linearGradient>
    <radialGradient id="glow">
      <stop offset="0%" stop-color="#f4e6c4" stop-opacity="0.6"/>
      <stop offset="100%" stop-color="#f4e6c4" stop-opacity="0"/>
    </radialGradient>
    <linearGradient id="veil" x1="0" y1="0" x2="0" y2="1">
      <stop offset="0%" stop-color="#000000" stop-opacity="0.14"/>
      <stop offset="42%" stop-color="#000000" stop-opacity="0"/>
      <stop offset="100%" stop-color="#000000" stop-opacity="0.34"/>
    </linearGradient>
  </defs>
  
  <g>
  <rect width="1600" height="1200" fill="url(#sky)"/>
  <circle cx="610.32" cy="232.76" r="1.11" fill="#ffffff" opacity="0.39"/><circle cx="164.81" cy="206.61" r="1.94" fill="#ffffff" opacity="0.32"/><circle cx="959.42" cy="221.03" r="1.73" fill="#ffffff" opacity="0.52"/><circle cx="531.73" cy="237.08" r="2.24" fill="#ffffff" opacity="0.46"/><circle cx="1390.64" cy="223.18" r="2.06" fill="#ffffff" opacity="0.45"/><circle cx="1156.89" cy="370.59" r="1.27" fill="#ffffff" opacity="0.64"/><circle cx="523.53" cy="39.53" r="1.67" fill="#ffffff" opacity="0.6"/><circle cx="257.05" cy="290.71" r="0.84" fill="#ffffff" opacity="0.39"/><circle cx="586.53" cy="76.56" r="2.57" fill="#ffffff" opacity="0.27"/><circle cx="978.1" cy="403.32" r="1.59" fill="#ffffff" opacity="0.65"/><circle cx="1362.37" cy="91.36" r="1.18" fill="#ffffff" opacity="0.59"/><circle cx="1277.09" cy="300" r="2.6" fill="#ffffff" opacity="0.61"/><circle cx="547.96" cy="119.08" r="1.87" fill="#ffffff" opacity="0.23"/><circle cx="196.73" cy="310.33" r="2.73" fill="#ffffff" opacity="0.59"/><circle cx="976.94" cy="162.28" r="2.23" fill="#ffffff" opacity="0.41"/><circle cx="859.91" cy="47.33" r="0.82" fill="#ffffff" opacity="0.47"/><circle cx="982.22" cy="247.74" r="1.26" fill="#ffffff" opacity="0.64"/><circle cx="1497.28" cy="268.61" r="1.42" fill="#ffffff" opacity="0.66"/><circle cx="1152.25" cy="98.24" r="1.09" fill="#ffffff" opacity="0.5"/><circle cx="1205.08" cy="411.69" r="1.94" fill="#ffffff" opacity="0.52"/><circle cx="943.21" cy="54.99" r="0.93" fill="#ffffff" opacity="0.73"/><circle cx="747.67" cy="224.5" r="1.99" fill="#ffffff" opacity="0.2"/><circle cx="306.54" cy="114.17" r="2.35" fill="#ffffff" opacity="0.56"/><circle cx="833.2" cy="356.8" r="1.91" fill="#ffffff" opacity="0.61"/><circle cx="1098.58" cy="477.57" r="1.43" fill="#ffffff" opacity="0.57"/><circle cx="1542.43" cy="317.47" r="1.23" fill="#ffffff" opacity="0.63"/><circle cx="176.75" cy="336.92" r="2.79" fill="#ffffff" opacity="0.57"/><circle cx="849.44" cy="306.61" r="1.42" fill="#ffffff" opacity="0.5"/><circle cx="872.63" cy="239.28" r="1.3" fill="#ffffff" opacity="0.7"/><circle cx="429.41" cy="227.11" r="1.01" fill="#ffffff" opacity="0.34"/><circle cx="958.74" cy="215.13" r="2.54" fill="#ffffff" opacity="0.36"/><circle cx="1119.98" cy="136.96" r="1.46" fill="#ffffff" opacity="0.31"/><circle cx="270.52" cy="202.6" r="1.09" fill="#ffffff" opacity="0.21"/><circle cx="1274.94" cy="380.87" r="2.26" fill="#ffffff" opacity="0.28"/><circle cx="1405.53" cy="98.32" r="1.02" fill="#ffffff" opacity="0.25"/><circle cx="1356.45" cy="296.31" r="1.9" fill="#ffffff" opacity="0.25"/><circle cx="260.19" cy="436.03" r="1.41" fill="#ffffff" opacity="0.34"/><circle cx="339.58" cy="220.53" r="1.6" fill="#ffffff" opacity="0.31"/><circle cx="1007.26" cy="304.35" r="2.8" fill="#ffffff" opacity="0.55"/><circle cx="1222.77" cy="53.29" r="2" fill="#ffffff" opacity="0.49"/><circle cx="639.14" cy="240.04" r="0.86" fill="#ffffff" opacity="0.72"/><circle cx="1410.63" cy="435.41" r="2.46" fill="#ffffff" opacity="0.57"/><circle cx="143.76" cy="293" r="2.24" fill="#ffffff" opacity="0.65"/><circle cx="367.45" cy="89.33" r="2.72" fill="#ffffff" opacity="0.39"/><circle cx="826.88" cy="355.09" r="2.04" fill="#ffffff" opacity="0.68"/><circle cx="234.54" cy="424.68" r="1.63" fill="#ffffff" opacity="0.63"/><circle cx="1565.71" cy="231.99" r="2.1" fill="#ffffff" opacity="0.32"/><circle cx="1282.59" cy="15.29" r="1.93" fill="#ffffff" opacity="0.45"/><circle cx="1078.91" cy="19.14" r="2.13" fill="#ffffff" opacity="0.53"/><circle cx="153.1" cy="40.19" r="2.67" fill="#ffffff" opacity="0.49"/><circle cx="563.55" cy="307.08" r="1.67" fill="#ffffff" opacity="0.53"/><circle cx="511.43" cy="453.27" r="2.21" fill="#ffffff" opacity="0.48"/><circle cx="94.95" cy="385.63" r="2.6" fill="#ffffff" opacity="0.52"/><circle cx="303.24" cy="440.85" r="2.64" fill="#ffffff" opacity="0.32"/><circle cx="305.41" cy="109.61" r="1" fill="#ffffff" opacity="0.58"/><circle cx="71.4" cy="212.72" r="2.11" fill="#ffffff" opacity="0.58"/><circle cx="1499.92" cy="129.22" r="2.55" fill="#ffffff" opacity="0.21"/><circle cx="807.96" cy="366.8" r="1.9" fill="#ffffff" opacity="0.74"/><circle cx="1498.66" cy="98.56" r="1.19" fill="#ffffff" opacity="0.72"/><circle cx="1335.2" cy="130.86" r="1.12" fill="#ffffff" opacity="0.66"/>
  
  <circle cx="256" cy="163.2" r="40.91" fill="#f4e6c4" opacity="0.95"/>
  
  <rect x="0" y="480" width="1600" height="264" fill="url(#sea)"/>
  <rect x="0" y="480" width="1600" height="3.82" fill="#ffffff" opacity="0.4"/>
  <path d="M161.61 534.55 q 140.24 -19.09 280.48 0 t 280.48 0" fill="none" stroke="#ffffff" stroke-opacity="0.26" stroke-width="6" stroke-linecap="round"/><path d="M444.23 563.88 q 102.43 -19.09 204.87 0 t 204.87 0" fill="none" stroke="#ffffff" stroke-opacity="0.26" stroke-width="6" stroke-linecap="round"/><path d="M289.46 593.21 q 149.15 -19.09 298.31 0 t 298.31 0" fill="none" stroke="#ffffff" stroke-opacity="0.26" stroke-width="6" stroke-linecap="round"/><path d="M403.33 622.55 q 140.21 -19.09 280.43 0 t 280.43 0" fill="none" stroke="#ffffff" stroke-opacity="0.26" stroke-width="6" stroke-linecap="round"/><path d="M375.7 651.88 q 138.76 -19.09 277.53 0 t 277.53 0" fill="none" stroke="#ffffff" stroke-opacity="0.26" stroke-width="6" stroke-linecap="round"/><path d="M42.41 681.21 q 74.64 -19.09 149.27 0 t 149.27 0" fill="none" stroke="#ffffff" stroke-opacity="0.26" stroke-width="6" stroke-linecap="round"/><path d="M614.06 710.55 q 116.81 -19.09 233.62 0 t 233.62 0" fill="none" stroke="#ffffff" stroke-opacity="0.26" stroke-width="6" stroke-linecap="round"/><path d="M326.58 739.88 q 148.74 -19.09 297.47 0 t 297.47 0" fill="none" stroke="#ffffff" stroke-opacity="0.26" stroke-width="6" stroke-linecap="round"/><path d="M469.56 769.21 q 110.88 -19.09 221.76 0 t 221.76 0" fill="none" stroke="#ffffff" stroke-opacity="0.26" stroke-width="6" stroke-linecap="round"/>
  <path d="M0 744 q 480 -48 960 0 t 640 0 V 1200 H 0 Z" fill="#5d5240"/>
  
  <g transform="translate(800 1056) scale(2.41)">
    <ellipse cx="0" cy="8" rx="180" ry="34" fill="#e0a75c" opacity="0.18"/>
    <path d="M-76 6 l 152 -26 M-76 -20 l 152 26 M-42 8 l 84 -48" stroke="#6b4f33" stroke-width="15" stroke-linecap="round"/>
    <path d="M0 -160 c 44 50 50 84 26 110 c -9 10 -26 18 -26 18 c 0 0 -17 -8 -26 -18 c -24 -26 -18 -60 26 -110 Z" fill="#e0a75c"/>
    <path d="M0 -108 c 24 30 26 50 12 64 c -5 6 -12 9 -12 9 c 0 0 -7 -3 -12 -9 c -14 -14 -12 -34 12 -64 Z" fill="#f4e6c4" opacity="0.92"/>
    <circle cx="-54.95" cy="-225.32" r="2.52" fill="#e0a75c" opacity="0.65"/><circle cx="-74.49" cy="-282.61" r="2.94" fill="#e0a75c" opacity="0.7"/><circle cx="82.89" cy="-241.94" r="3.82" fill="#e0a75c" opacity="0.59"/><circle cx="86.95" cy="-158.65" r="4.04" fill="#e0a75c" opacity="0.59"/><circle cx="-43.9" cy="-188.15" r="3.89" fill="#e0a75c" opacity="0.58"/><circle cx="40.27" cy="-163.74" r="4" fill="#e0a75c" opacity="0.65"/><circle cx="-67.31" cy="-273.61" r="1.75" fill="#e0a75c" opacity="0.32"/><circle cx="-3.79" cy="-307.98" r="4.29" fill="#e0a75c" opacity="0.7"/><circle cx="75.75" cy="-314.41" r="4.23" fill="#e0a75c" opacity="0.34"/><circle cx="-23.56" cy="-275.17" r="4.35" fill="#e0a75c" opacity="0.41"/><circle cx="-7.25" cy="-153.99" r="1.75" fill="#e0a75c" opacity="0.71"/><circle cx="-7.96" cy="-180.28" r="2.15" fill="#e0a75c" opacity="0.59"/><circle cx="-39.82" cy="-148.88" r="2.33" fill="#e0a75c" opacity="0.7"/><circle cx="80.7" cy="-300.65" r="2.18" fill="#e0a75c" opacity="0.35"/><circle cx="60.27" cy="-286.17" r="3.47" fill="#e0a75c" opacity="0.66"/><circle cx="27.59" cy="-146.42" r="1.64" fill="#e0a75c" opacity="0.71"/><circle cx="-71.14" cy="-265.57" r="4.23" fill="#e0a75c" opacity="0.32"/><circle cx="-76.13" cy="-199.94" r="2.5" fill="#e0a75c" opacity="0.78"/><circle cx="7.34" cy="-141.37" r="2.41" fill="#e0a75c" opacity="0.41"/><circle cx="16.94" cy="-144.33" r="1.88" fill="#e0a75c" opacity="0.74"/><circle cx="-73.07" cy="-169.14" r="1.63" fill="#e0a75c" opacity="0.85"/><circle cx="-74.62" cy="-267.81" r="2.62" fill="#e0a75c" opacity="0.69"/>
  </g>
  
  <g transform="translate(384 1116) scale(1.91)" fill="#f1e7d6" opacity="0.68">
    <circle cx="0" cy="-92" r="13"/>
    <path d="M-12 -76 h24 l9 48 h-42 Z"/>
    <rect x="-13" y="-28" width="10" height="30" rx="4"/>
    <rect x="3" y="-28" width="10" height="30" rx="4"/>
  </g>
  
  <g transform="translate(1248 1104) scale(2)" fill="#f1e7d6" opacity="0.68">
    <circle cx="0" cy="-92" r="13"/>
    <path d="M-12 -76 h24 l9 48 h-42 Z"/>
    <rect x="-13" y="-28" width="10" height="30" rx="4"/>
    <rect x="3" y="-28" width="10" height="30" rx="4"/>
  </g>
  
  <g transform="translate(1056 1164) scale(2.2)" fill="#f1e7d6" opacity="0.68">
    <circle cx="0" cy="-92" r="13"/>
    <path d="M-12 -76 h24 l9 48 h-42 Z"/>
    <rect x="-13" y="-28" width="10" height="30" rx="4"/>
    <rect x="3" y="-28" width="10" height="30" rx="4"/>
  </g>
  
  <g transform="translate(112 984) scale(1.78)">
    <circle cx="0" cy="-22" r="40" fill="#f4e6c4" opacity="0.22"/>
    <rect x="-13" y="-36" width="26" height="36" rx="4" fill="none" stroke="#f1e7d6" stroke-width="3.4" opacity="0.75"/>
    <path d="M-13 -36 h26 M0 -46 v10" stroke="#f1e7d6" stroke-width="3.4" opacity="0.75" fill="none"/>
    <rect x="-7" y="-30" width="14" height="24" rx="3" fill="#f4e6c4"/>
  </g>
  
  <g transform="translate(1488 948) scale(1.68)">
    <circle cx="0" cy="-22" r="40" fill="#f4e6c4" opacity="0.22"/>
    <rect x="-13" y="-36" width="26" height="36" rx="4" fill="none" stroke="#f1e7d6" stroke-width="3.4" opacity="0.75"/>
    <path d="M-13 -36 h26 M0 -46 v10" stroke="#f1e7d6" stroke-width="3.4" opacity="0.75" fill="none"/>
    <rect x="-7" y="-30" width="14" height="24" rx="3" fill="#f4e6c4"/>
  </g></g>
  <rect width="1600" height="1200" fill="url(#veil)"/>
  <g>
    <g transform="translate(60.8 1152.12) scale(0.88)" fill="none" stroke="#ffffff" stroke-width="2.4" opacity="0.8">
    <path d="M0 -22 C 7 -9, 9 -7, 22 0 C 9 7, 7 9, 0 22 C -7 9, -9 7, -22 0 C -9 -7, -7 -9, 0 -22 Z"/>
    <circle cx="0" cy="0" r="6.5"/>
  </g>
    <text x="95" y="1165.8"
      font-family="Jost, Futura, 'Helvetica Neue', Helvetica, Arial, sans-serif"
      font-size="22.8" letter-spacing="5.93"
      fill="#ffffff" fill-opacity="0.82">BONFIRE NIGHT</text>
  </g>
</svg>
