<svg xmlns="http://www.w3.org/2000/svg" viewBox="0 0 1600 1200" width="1600" height="1200" role="img" aria-label="The gardens, placeholder artwork">
  <defs>
    <linearGradient id="sky" x1="0" y1="0" x2="0" y2="1">
      <stop offset="0%" stop-color="#bcd8e6"/>
      <stop offset="100%" stop-color="#eef4f3"/>
    </linearGradient>
    <linearGradient id="sea" x1="0" y1="0" x2="0" y2="1">
      <stop offset="0%" stop-color="#3a7f99"/>
      <stop offset="100%" stop-color="#1f5468"/>
    </linearGradient>
    <linearGradient id="water" x1="0" y1="0" x2="1" y2="1">
      <stop offset="0%" stop-color="#8fd0d8"/>
      <stop offset="100%" stop-color="#2f8ba0"/>
    </linearGradient>
    <radialGradient id="glow">
      <stop offset="0%" stop-color="#fff3d8" stop-opacity="0.6"/>
      <stop offset="100%" stop-color="#fff3d8" stop-opacity="0"/>
    </radialGradient>
    <linearGradient id="veil" x1="0" y1="0" x2="0" y2="1">
      <stop offset="0%" stop-color="#000000" stop-opacity="0.14"/>
      <stop offset="42%" stop-color="#000000" stop-opacity="0"/>
      <stop offset="100%" stop-color="#000000" stop-opacity="0.34"/>
    </linearGradient>
  </defs>
  
  <g>
  <rect width="1600" height="1200" fill="url(#sky)"/>
  <circle cx="1376" cy="172.8" r="185.45" fill="url(#glow)"/>
  <circle cx="1376" cy="172.8" r="54.55" fill="#fff3d8" opacity="0.95"/>
  <rect x="0" y="432" width="1600" height="768" fill="#6f7f5c" opacity="0.22"/>
  
  <rect x="0" y="672" width="1600" height="528" fill="#fbf8f2"/>
  <rect x="0" y="672" width="1600" height="43.64" fill="#ece4d6"/>
  <path d="M228.57 715.64 V 1200" stroke="#4a3f31" stroke-opacity="0.07" stroke-width="5.45"/><path d="M457.14 715.64 V 1200" stroke="#4a3f31" stroke-opacity="0.07" stroke-width="5.45"/><path d="M685.71 715.64 V 1200" stroke="#4a3f31" stroke-opacity="0.07" stroke-width="5.45"/><path d="M914.29 715.64 V 1200" stroke="#4a3f31" stroke-opacity="0.07" stroke-width="5.45"/><path d="M1142.86 715.64 V 1200" stroke="#4a3f31" stroke-opacity="0.07" stroke-width="5.45"/><path d="M1371.43 715.64 V 1200" stroke="#4a3f31" stroke-opacity="0.07" stroke-width="5.45"/>
  <path d="M0 893.76 H 1600" stroke="#4a3f31" stroke-opacity="0.06" stroke-width="5.45"/>
  <path d="M416 1200 q 192 -312 320 -528 h 208 q -192 120 -320 528 Z" fill="#e9dcc6" opacity="0.8"/>
  
  <g transform="translate(1312 704.73) scale(-1.78 1.78)">
    <rect x="-128" y="-118" width="136" height="120" rx="7" fill="#fbf8f2"/>
    <rect x="2" y="-84" width="120" height="86" rx="7" fill="#ece4d6"/>
    <rect x="-128" y="-124" width="136" height="12" rx="6" fill="#d9cdb9" opacity="0.55"/>
    <rect x="2" y="-90" width="120" height="10" rx="5" fill="#d9cdb9" opacity="0.45"/>
    <path d="M-98 2 v-52 a25 25 0 0 1 50 0 V2 Z" fill="#1f5468" opacity="0.34"/>
    <path d="M-98 2 v-52 a25 25 0 0 1 50 0 V2" fill="none" stroke="#ece4d6" stroke-width="4"/>
    <rect x="-32" y="-64" width="26" height="32" rx="3" fill="#1f5468" opacity="0.3"/>
    <rect x="28" y="-58" width="28" height="34" rx="3" fill="#1f5468" opacity="0.24"/>
    <rect x="80" y="-58" width="24" height="34" rx="3" fill="#1f5468" opacity="0.2"/>
    <path d="M-60 -124 v-16 M-72 -140 h24 M-60 -140 v-10" stroke="#8a6a3c" stroke-width="3.5" fill="none" opacity="0.6"/>
  </g>
  
  <g transform="translate(224 1008) scale(2.75)">
    <path d="M-4 0 v-54 q -3 -18 8 -28 M-2 -34 l -16 -14 M0 -46 l 16 -12" fill="none" stroke="#9c7b51" stroke-width="8" stroke-linecap="round"/>
    <circle cx="-26" cy="-84" r="30" fill="#6f7f5c" opacity="0.85"/>
    <circle cx="20" cy="-94" r="34" fill="#6f7f5c" opacity="0.72"/>
    <circle cx="0" cy="-116" r="26" fill="#6f7f5c" opacity="0.9"/>
    <circle cx="-42" cy="-108" r="19" fill="#6f7f5c" opacity="0.7"/>
    <circle cx="38" cy="-70" r="18" fill="#6f7f5c" opacity="0.78"/>
  </g>
  
  <g transform="translate(736 840) scale(1.78)">
    <path d="M-4 0 v-54 q -3 -18 8 -28 M-2 -34 l -16 -14 M0 -46 l 16 -12" fill="none" stroke="#9c7b51" stroke-width="8" stroke-linecap="round"/>
    <circle cx="-26" cy="-84" r="30" fill="#6f7f5c" opacity="0.85"/>
    <circle cx="20" cy="-94" r="34" fill="#6f7f5c" opacity="0.72"/>
    <circle cx="0" cy="-116" r="26" fill="#6f7f5c" opacity="0.9"/>
    <circle cx="-42" cy="-108" r="19" fill="#6f7f5c" opacity="0.7"/>
    <circle cx="38" cy="-70" r="18" fill="#6f7f5c" opacity="0.78"/>
  </g>
  <path transform="translate(1008 816) scale(2.16)" d="M0 0 c -20 -8 -22 -76 0 -122 c 22 46 20 114 0 122 Z" fill="#4e5c40" opacity="0.82"/>
  
  <g transform="translate(1152 1128) scale(2.02)">
    <circle cx="-14" cy="-58" r="20" fill="#6f7f5c" opacity="0.85"/>
    <circle cx="14" cy="-64" r="22" fill="#4e5c40" opacity="0.75"/>
    <circle cx="0" cy="-82" r="17" fill="#6f7f5c" opacity="0.8"/>
    <path d="M-22 -38 h44 l-7 38 h-30 Z" fill="#8a6a3c" opacity="0.75"/>
    <rect x="-25" y="-42" width="50" height="8" rx="3" fill="#8a6a3c" opacity="0.85"/>
  </g>
  
  <g transform="translate(480 1032) scale(1.59)">
    <circle cx="0" cy="-22" r="40" fill="#fff3d8" opacity="0.22"/>
    <rect x="-13" y="-36" width="26" height="36" rx="4" fill="none" stroke="#4a3f31" stroke-width="3.4" opacity="0.75"/>
    <path d="M-13 -36 h26 M0 -46 v10" stroke="#4a3f31" stroke-width="3.4" opacity="0.75" fill="none"/>
    <rect x="-7" y="-30" width="14" height="24" rx="3" fill="#fff3d8"/>
  </g>
  <g transform="translate(1568 600) scale(-2.16 2.16)"><circle cx="-41.24" cy="-110.66" r="11.55" fill="#c76a7a" opacity="0.73"/><circle cx="50.23" cy="-85.82" r="13.06" fill="#4e5c40" opacity="0.89"/><circle cx="-30.22" cy="-94.27" r="16.58" fill="#4e5c40" opacity="0.9"/><circle cx="-77.76" cy="-22.77" r="12.59" fill="#c76a7a" opacity="0.69"/><circle cx="-86.36" cy="-36.36" r="15.46" fill="#4e5c40" opacity="0.62"/><circle cx="27.96" cy="-33.56" r="17.32" fill="#4e5c40" opacity="0.79"/><circle cx="34.11" cy="-78.76" r="11.02" fill="#c76a7a" opacity="0.67"/><circle cx="81.74" cy="-64.68" r="15.31" fill="#4e5c40" opacity="0.45"/><circle cx="8.43" cy="-145.27" r="8.89" fill="#4e5c40" opacity="0.79"/><circle cx="-46.97" cy="-3.27" r="13.88" fill="#c76a7a" opacity="0.8"/><circle cx="-54.05" cy="-127.16" r="18.64" fill="#4e5c40" opacity="0.78"/><circle cx="-41.86" cy="-72.38" r="8.42" fill="#4e5c40" opacity="0.88"/><circle cx="41.61" cy="-31.7" r="10.41" fill="#c76a7a" opacity="0.62"/><circle cx="64.61" cy="-112.96" r="13.68" fill="#4e5c40" opacity="0.77"/><circle cx="33.42" cy="-58.09" r="12.45" fill="#4e5c40" opacity="0.67"/><circle cx="43.95" cy="-36.45" r="15.34" fill="#c76a7a" opacity="0.49"/><circle cx="20.34" cy="-10.77" r="6.81" fill="#4e5c40" opacity="0.57"/><circle cx="26.8" cy="-35.68" r="9.31" fill="#4e5c40" opacity="0.87"/><circle cx="19.56" cy="-71.94" r="15.68" fill="#c76a7a" opacity="0.54"/><circle cx="-28.77" cy="-134.01" r="13.54" fill="#4e5c40" opacity="0.61"/><circle cx="-39.08" cy="-60.41" r="13.9" fill="#4e5c40" opacity="0.69"/><circle cx="34.72" cy="-139.84" r="15.08" fill="#c76a7a" opacity="0.77"/><circle cx="-48.94" cy="-7.27" r="9.16" fill="#4e5c40" opacity="0.68"/><circle cx="1.43" cy="-126.68" r="6.12" fill="#4e5c40" opacity="0.85"/><circle cx="63.7" cy="-115.87" r="8.98" fill="#c76a7a" opacity="0.88"/><circle cx="53.11" cy="-107.96" r="12.56" fill="#4e5c40" opacity="0.79"/></g></g>
  <rect width="1600" height="1200" fill="url(#veil)"/>
  <g>
    <g transform="translate(60.8 1152.12) scale(0.88)" fill="none" stroke="#ffffff" stroke-width="2.4" opacity="0.8">
    <path d="M0 -22 C 7 -9, 9 -7, 22 0 C 9 7, 7 9, 0 22 C -7 9, -9 7, -22 0 C -9 -7, -7 -9, 0 -22 Z"/>
    <circle cx="0" cy="0" r="6.5"/>
  </g>
    <text x="95" y="1165.8"
      font-family="Jost, Futura, 'Helvetica Neue', Helvetica, Arial, sans-serif"
      font-size="22.8" letter-spacing="5.93"
      fill="#ffffff" fill-opacity="0.82">THE GARDENS</text>
  </g>
</svg>
