<svg xmlns="http://www.w3.org/2000/svg" viewBox="0 0 2200 1000" width="2200" height="1000" role="img" aria-label="Elysis, placeholder artwork">
  <defs>
    <linearGradient id="sky" x1="0" y1="0" x2="0" y2="1">
      <stop offset="0%" stop-color="#6e6a8e"/>
      <stop offset="100%" stop-color="#f2c49a"/>
    </linearGradient>
    <linearGradient id="sea" x1="0" y1="0" x2="0" y2="1">
      <stop offset="0%" stop-color="#3b5e7a"/>
      <stop offset="100%" stop-color="#22384f"/>
    </linearGradient>
    <linearGradient id="water" x1="0" y1="0" x2="1" y2="1">
      <stop offset="0%" stop-color="#8fd0d8"/>
      <stop offset="100%" stop-color="#2f8ba0"/>
    </linearGradient>
    <radialGradient id="glow">
      <stop offset="0%" stop-color="#ffd9a1" stop-opacity="0.6"/>
      <stop offset="100%" stop-color="#ffd9a1" stop-opacity="0"/>
    </radialGradient>
    <linearGradient id="veil" x1="0" y1="0" x2="0" y2="1">
      <stop offset="0%" stop-color="#000000" stop-opacity="0.14"/>
      <stop offset="42%" stop-color="#000000" stop-opacity="0"/>
      <stop offset="100%" stop-color="#000000" stop-opacity="0.34"/>
    </linearGradient>
  </defs>
  
  <g transform="translate(2200 0) scale(-1 1)">
  <rect width="2200" height="1000" fill="url(#sky)"/>
  <circle cx="1584" cy="174.8" r="200.91" fill="url(#glow)"/>
  <circle cx="1584" cy="174.8" r="59.09" fill="#ffd9a1" opacity="0.95"/>
  
  <path d="M0 380 C 176 253.8, 572 271.88, 1100 380 Z" fill="#22384f" opacity="0.2"/>
  <path d="M968 380 C 1364 271.88, 1848 253.8, 2200 352.73 L 2200 380 Z" fill="#22384f" opacity="0.26"/>
  
  <rect x="0" y="380" width="2200" height="300" fill="url(#sea)"/>
  <rect x="0" y="380" width="2200" height="3.18" fill="#ffffff" opacity="0.4"/>
  <path d="M420.02 425.45 q 209.5 -15.91 418.99 0 t 418.99 0" fill="none" stroke="#ffffff" stroke-opacity="0.26" stroke-width="5" stroke-linecap="round"/><path d="M659.45 458.79 q 210.39 -15.91 420.77 0 t 420.77 0" fill="none" stroke="#ffffff" stroke-opacity="0.26" stroke-width="5" stroke-linecap="round"/><path d="M815.25 492.12 q 196.4 -15.91 392.79 0 t 392.79 0" fill="none" stroke="#ffffff" stroke-opacity="0.26" stroke-width="5" stroke-linecap="round"/><path d="M144.58 525.45 q 144.48 -15.91 288.97 0 t 288.97 0" fill="none" stroke="#ffffff" stroke-opacity="0.26" stroke-width="5" stroke-linecap="round"/><path d="M277.16 558.79 q 155.67 -15.91 311.35 0 t 311.35 0" fill="none" stroke="#ffffff" stroke-opacity="0.26" stroke-width="5" stroke-linecap="round"/><path d="M441.79 592.12 q 209.1 -15.91 418.19 0 t 418.19 0" fill="none" stroke="#ffffff" stroke-opacity="0.26" stroke-width="5" stroke-linecap="round"/><path d="M850.87 625.45 q 169.1 -15.91 338.21 0 t 338.21 0" fill="none" stroke="#ffffff" stroke-opacity="0.26" stroke-width="5" stroke-linecap="round"/><path d="M112.27 658.79 q 112.33 -15.91 224.65 0 t 224.65 0" fill="none" stroke="#ffffff" stroke-opacity="0.26" stroke-width="5" stroke-linecap="round"/><path d="M848.08 692.12 q 97.17 -15.91 194.35 0 t 194.35 0" fill="none" stroke="#ffffff" stroke-opacity="0.26" stroke-width="5" stroke-linecap="round"/>
  
  <rect x="0" y="602.73" width="2200" height="77.27" rx="13.64" fill="#f6ead9"/>
  <rect x="0" y="602.73" width="2200" height="18.18" fill="#e3d0b9"/>
  
  <rect x="0" y="680" width="2200" height="320" fill="#f6ead9"/>
  <rect x="0" y="680" width="2200" height="36.36" fill="#e3d0b9"/>
  <path d="M314.29 716.36 V 1000" stroke="#3b2f26" stroke-opacity="0.07" stroke-width="4.55"/><path d="M628.57 716.36 V 1000" stroke="#3b2f26" stroke-opacity="0.07" stroke-width="4.55"/><path d="M942.86 716.36 V 1000" stroke="#3b2f26" stroke-opacity="0.07" stroke-width="4.55"/><path d="M1257.14 716.36 V 1000" stroke="#3b2f26" stroke-opacity="0.07" stroke-width="4.55"/><path d="M1571.43 716.36 V 1000" stroke="#3b2f26" stroke-opacity="0.07" stroke-width="4.55"/><path d="M1885.71 716.36 V 1000" stroke="#3b2f26" stroke-opacity="0.07" stroke-width="4.55"/>
  <path d="M0 814.4 H 2200" stroke="#3b2f26" stroke-opacity="0.06" stroke-width="4.55"/>
  
  <g transform="translate(440 707.27) scale(1.58)">
    <rect x="-128" y="-118" width="136" height="120" rx="7" fill="#f6ead9"/>
    <rect x="2" y="-84" width="120" height="86" rx="7" fill="#e3d0b9"/>
    <rect x="-128" y="-124" width="136" height="12" rx="6" fill="#c9b295" opacity="0.55"/>
    <rect x="2" y="-90" width="120" height="10" rx="5" fill="#c9b295" opacity="0.45"/>
    <path d="M-98 2 v-52 a25 25 0 0 1 50 0 V2 Z" fill="#22384f" opacity="0.34"/>
    <path d="M-98 2 v-52 a25 25 0 0 1 50 0 V2" fill="none" stroke="#e3d0b9" stroke-width="4"/>
    <rect x="-32" y="-64" width="26" height="32" rx="3" fill="#22384f" opacity="0.3"/>
    <rect x="28" y="-58" width="28" height="34" rx="3" fill="#22384f" opacity="0.24"/>
    <rect x="80" y="-58" width="24" height="34" rx="3" fill="#22384f" opacity="0.2"/>
    <path d="M-60 -124 v-16 M-72 -140 h24 M-60 -140 v-10" stroke="#b07d42" stroke-width="3.5" fill="none" opacity="0.6"/>
  </g>
  
  <g>
    <rect x="1012" y="618.62" width="880" height="11.66" rx="3.89" fill="#8d6b44"/>
    <rect x="1008.11" y="628.33" width="7.77" height="11.66" rx="1.94" fill="#8d6b44" opacity="0.92"/><rect x="1040.71" y="628.33" width="7.77" height="11.66" rx="1.94" fill="#8d6b44" opacity="0.92"/><rect x="1073.3" y="628.33" width="7.77" height="11.66" rx="1.94" fill="#8d6b44" opacity="0.92"/><rect x="1105.89" y="628.33" width="7.77" height="11.66" rx="1.94" fill="#8d6b44" opacity="0.92"/><rect x="1138.49" y="628.33" width="7.77" height="11.66" rx="1.94" fill="#8d6b44" opacity="0.92"/><rect x="1171.08" y="628.33" width="7.77" height="11.66" rx="1.94" fill="#8d6b44" opacity="0.92"/><rect x="1203.67" y="628.33" width="7.77" height="11.66" rx="1.94" fill="#8d6b44" opacity="0.92"/><rect x="1236.26" y="628.33" width="7.77" height="11.66" rx="1.94" fill="#8d6b44" opacity="0.92"/><rect x="1268.86" y="628.33" width="7.77" height="11.66" rx="1.94" fill="#8d6b44" opacity="0.92"/><rect x="1301.45" y="628.33" width="7.77" height="11.66" rx="1.94" fill="#8d6b44" opacity="0.92"/><rect x="1334.04" y="628.33" width="7.77" height="11.66" rx="1.94" fill="#8d6b44" opacity="0.92"/><rect x="1366.63" y="628.33" width="7.77" height="11.66" rx="1.94" fill="#8d6b44" opacity="0.92"/><rect x="1399.23" y="628.33" width="7.77" height="11.66" rx="1.94" fill="#8d6b44" opacity="0.92"/><rect x="1431.82" y="628.33" width="7.77" height="11.66" rx="1.94" fill="#8d6b44" opacity="0.92"/><rect x="1464.41" y="628.33" width="7.77" height="11.66" rx="1.94" fill="#8d6b44" opacity="0.92"/><rect x="1497" y="628.33" width="7.77" height="11.66" rx="1.94" fill="#8d6b44" opacity="0.92"/><rect x="1529.6" y="628.33" width="7.77" height="11.66" rx="1.94" fill="#8d6b44" opacity="0.92"/><rect x="1562.19" y="628.33" width="7.77" height="11.66" rx="1.94" fill="#8d6b44" opacity="0.92"/><rect x="1594.78" y="628.33" width="7.77" height="11.66" rx="1.94" fill="#8d6b44" opacity="0.92"/><rect x="1627.37" y="628.33" width="7.77" height="11.66" rx="1.94" fill="#8d6b44" opacity="0.92"/><rect x="1659.97" y="628.33" width="7.77" height="11.66" rx="1.94" fill="#8d6b44" opacity="0.92"/><rect x="1692.56" y="628.33" width="7.77" height="11.66" rx="1.94" fill="#8d6b44" opacity="0.92"/><rect x="1725.15" y="628.33" width="7.77" height="11.66" rx="1.94" fill="#8d6b44" opacity="0.92"/><rect x="1757.74" y="628.33" width="7.77" height="11.66" rx="1.94" fill="#8d6b44" opacity="0.92"/><rect x="1790.34" y="628.33" width="7.77" height="11.66" rx="1.94" fill="#8d6b44" opacity="0.92"/><rect x="1822.93" y="628.33" width="7.77" height="11.66" rx="1.94" fill="#8d6b44" opacity="0.92"/><rect x="1855.52" y="628.33" width="7.77" height="11.66" rx="1.94" fill="#8d6b44" opacity="0.92"/><rect x="1888.11" y="628.33" width="7.77" height="11.66" rx="1.94" fill="#8d6b44" opacity="0.92"/>
    <rect x="1017.83" y="628.33" width="10.68" height="97.13" rx="2.91" fill="#8d6b44"/>
    <rect x="1875.49" y="628.33" width="10.68" height="97.13" rx="2.91" fill="#8d6b44"/>
    <path d="M1017.83 641.93 h 868.34" stroke="#8d6b44" stroke-width="2.91" opacity="0.5"/>
  </g>
  
  <g transform="translate(1144 880) scale(1.36)">
    <path d="M0 0 h78 v10 h-78 Z" fill="#f6ead9"/>
    <path d="M52 0 l24 -34 h13 l-21 34 Z" fill="#f6ead9"/>
    <rect x="8" y="-5" width="46" height="6" rx="3" fill="#b07d42" opacity="0.35"/>
    <rect x="7" y="10" width="5" height="14" fill="#8d6b44"/>
    <rect x="66" y="10" width="5" height="14" fill="#8d6b44"/>
  </g>
  <g transform="translate(1290.45 880) scale(1.36)">
    <path d="M0 0 h78 v10 h-78 Z" fill="#f6ead9"/>
    <path d="M52 0 l24 -34 h13 l-21 34 Z" fill="#f6ead9"/>
    
    <rect x="7" y="10" width="5" height="14" fill="#8d6b44"/>
    <rect x="66" y="10" width="5" height="14" fill="#8d6b44"/>
  </g>
  
  <g transform="translate(1760 950) scale(0.97)">
    
    <rect x="-180" y="-20" width="360" height="20" rx="9" fill="#f6ead9"/>
    <rect x="-176" y="0" width="352" height="6" rx="3" fill="#e3d0b9"/>
    <rect x="-150" y="6" width="12" height="58" fill="#8d6b44"/>
    <rect x="138" y="6" width="12" height="58" fill="#8d6b44"/>
    <ellipse cx="-96" cy="-26" rx="34" ry="10" fill="#e3d0b9"/>
    <ellipse cx="96" cy="-26" rx="34" ry="10" fill="#e3d0b9"/>
    <path d="M-10 -26 v-34 a13 13 0 0 1 20 0 v34 Z" fill="#b07d42" opacity="0.5"/>
    <circle cx="0" cy="-70" r="8" fill="#ffd9a1"/>
    <circle cx="0" cy="-70" r="20" fill="#ffd9a1" opacity="0.22"/>
    <rect x="-46" y="-52" width="9" height="26" rx="4" fill="#22384f" opacity="0.32"/>
    <rect x="38" y="-52" width="9" height="26" rx="4" fill="#22384f" opacity="0.32"/>
  </g>
  
  <g transform="translate(902 748.18) scale(1.49)">
    <circle cx="-14" cy="-58" r="20" fill="#5c6a4e" opacity="0.85"/>
    <circle cx="14" cy="-64" r="22" fill="#3f4a37" opacity="0.75"/>
    <circle cx="0" cy="-82" r="17" fill="#5c6a4e" opacity="0.8"/>
    <path d="M-22 -38 h44 l-7 38 h-30 Z" fill="#b07d42" opacity="0.75"/>
    <rect x="-25" y="-42" width="50" height="8" rx="3" fill="#b07d42" opacity="0.85"/>
  </g>
  
  <g transform="translate(2090 1020) scale(2.2)">
    <path d="M-4 0 v-54 q -3 -18 8 -28 M-2 -34 l -16 -14 M0 -46 l 16 -12" fill="none" stroke="#8d6b44" stroke-width="8" stroke-linecap="round"/>
    <circle cx="-26" cy="-84" r="30" fill="#5c6a4e" opacity="0.85"/>
    <circle cx="20" cy="-94" r="34" fill="#5c6a4e" opacity="0.72"/>
    <circle cx="0" cy="-116" r="26" fill="#5c6a4e" opacity="0.9"/>
    <circle cx="-42" cy="-108" r="19" fill="#5c6a4e" opacity="0.7"/>
    <circle cx="38" cy="-70" r="18" fill="#5c6a4e" opacity="0.78"/>
  </g>
  <g transform="translate(88 300) scale(1.49 1.49)"><circle cx="-48.29" cy="-117.69" r="6.05" fill="#c76a7a" opacity="0.83"/><circle cx="60.86" cy="-108.16" r="18.05" fill="#3f4a37" opacity="0.87"/><circle cx="-29.28" cy="-97.83" r="8.02" fill="#3f4a37" opacity="0.49"/><circle cx="48.06" cy="-8.88" r="13.37" fill="#c76a7a" opacity="0.61"/><circle cx="-51.9" cy="-63.65" r="6.11" fill="#3f4a37" opacity="0.59"/><circle cx="45.76" cy="-84.22" r="18.52" fill="#3f4a37" opacity="0.61"/><circle cx="-0.46" cy="-120.98" r="18.45" fill="#c76a7a" opacity="0.7"/><circle cx="-71.15" cy="-147" r="16.39" fill="#3f4a37" opacity="0.47"/><circle cx="-75.47" cy="-124.35" r="12.92" fill="#3f4a37" opacity="0.7"/><circle cx="17.49" cy="-30.79" r="11.2" fill="#c76a7a" opacity="0.75"/><circle cx="-6.95" cy="-17.42" r="18.2" fill="#3f4a37" opacity="0.68"/><circle cx="-77.28" cy="-142.34" r="6.71" fill="#3f4a37" opacity="0.89"/><circle cx="-64.78" cy="-91.7" r="15.15" fill="#c76a7a" opacity="0.68"/><circle cx="-2" cy="-19.53" r="14.26" fill="#3f4a37" opacity="0.65"/><circle cx="79.49" cy="-74.48" r="17.43" fill="#3f4a37" opacity="0.52"/><circle cx="26.5" cy="-80.46" r="11.4" fill="#c76a7a" opacity="0.59"/><circle cx="-74.71" cy="-128.04" r="6.95" fill="#3f4a37" opacity="0.46"/><circle cx="74.01" cy="-35.65" r="17.68" fill="#3f4a37" opacity="0.83"/><circle cx="-6.66" cy="-17.51" r="15.06" fill="#c76a7a" opacity="0.46"/><circle cx="-89.51" cy="-59.87" r="8.19" fill="#3f4a37" opacity="0.51"/><circle cx="40.29" cy="-6.54" r="16.53" fill="#3f4a37" opacity="0.55"/><circle cx="10.7" cy="-54.4" r="16.6" fill="#c76a7a" opacity="0.53"/><circle cx="14.67" cy="-127.27" r="16.39" fill="#3f4a37" opacity="0.78"/><circle cx="73.81" cy="-143.12" r="11.32" fill="#3f4a37" opacity="0.85"/><circle cx="-23.35" cy="-83.07" r="10.59" fill="#c76a7a" opacity="0.48"/><circle cx="-11.22" cy="-75.08" r="18" fill="#3f4a37" opacity="0.68"/></g>
  
  <g transform="translate(726 734.55) scale(1.1)">
    <circle cx="0" cy="-22" r="40" fill="#ffd9a1" opacity="0.22"/>
    <rect x="-13" y="-36" width="26" height="36" rx="4" fill="none" stroke="#3b2f26" stroke-width="3.4" opacity="0.75"/>
    <path d="M-13 -36 h26 M0 -46 v10" stroke="#3b2f26" stroke-width="3.4" opacity="0.75" fill="none"/>
    <rect x="-7" y="-30" width="14" height="24" rx="3" fill="#ffd9a1"/>
  </g></g>
  <rect width="2200" height="1000" fill="url(#veil)"/>
  <g>
    <g transform="translate(83.6 960.1) scale(0.73)" fill="none" stroke="#ffffff" stroke-width="2.4" opacity="0.8">
    <path d="M0 -22 C 7 -9, 9 -7, 22 0 C 9 7, 7 9, 0 22 C -7 9, -9 7, -22 0 C -9 -7, -7 -9, 0 -22 Z"/>
    <circle cx="0" cy="0" r="6.5"/>
  </g>
    <text x="112.1" y="971.5"
      font-family="Jost, Futura, 'Helvetica Neue', Helvetica, Arial, sans-serif"
      font-size="19" letter-spacing="4.94"
      fill="#ffffff" fill-opacity="0.82">ELYSIS</text>
  </g>
</svg>
