<svg xmlns="http://www.w3.org/2000/svg" viewBox="0 0 2200 1000" width="2200" height="1000" role="img" aria-label="Elysis, placeholder artwork">
  <defs>
    <linearGradient id="sky" x1="0" y1="0" x2="0" y2="1">
      <stop offset="0%" stop-color="#bcd8e6"/>
      <stop offset="100%" stop-color="#eef4f3"/>
    </linearGradient>
    <linearGradient id="sea" x1="0" y1="0" x2="0" y2="1">
      <stop offset="0%" stop-color="#3a7f99"/>
      <stop offset="100%" stop-color="#1f5468"/>
    </linearGradient>
    <linearGradient id="water" x1="0" y1="0" x2="1" y2="1">
      <stop offset="0%" stop-color="#8fd0d8"/>
      <stop offset="100%" stop-color="#2f8ba0"/>
    </linearGradient>
    <radialGradient id="glow">
      <stop offset="0%" stop-color="#fff3d8" stop-opacity="0.6"/>
      <stop offset="100%" stop-color="#fff3d8" stop-opacity="0"/>
    </radialGradient>
    <linearGradient id="veil" x1="0" y1="0" x2="0" y2="1">
      <stop offset="0%" stop-color="#000000" stop-opacity="0.14"/>
      <stop offset="42%" stop-color="#000000" stop-opacity="0"/>
      <stop offset="100%" stop-color="#000000" stop-opacity="0.34"/>
    </linearGradient>
  </defs>
  
  <g>
  <rect width="2200" height="1000" fill="url(#sky)"/>
  <circle cx="1584" cy="174.8" r="200.91" fill="url(#glow)"/>
  <circle cx="1584" cy="174.8" r="59.09" fill="#fff3d8" opacity="0.95"/>
  
  <path d="M0 380 C 176 231.21, 572 288.89, 1100 380 Z" fill="#1f5468" opacity="0.2"/>
  <path d="M968 380 C 1364 288.89, 1848 231.21, 2200 352.73 L 2200 380 Z" fill="#1f5468" opacity="0.26"/>
  
  <rect x="0" y="380" width="2200" height="300" fill="url(#sea)"/>
  <rect x="0" y="380" width="2200" height="3.18" fill="#ffffff" opacity="0.4"/>
  <path d="M376.16 425.45 q 197.04 -15.91 394.08 0 t 394.08 0" fill="none" stroke="#ffffff" stroke-opacity="0.26" stroke-width="5" stroke-linecap="round"/><path d="M92.16 458.79 q 226.62 -15.91 453.24 0 t 453.24 0" fill="none" stroke="#ffffff" stroke-opacity="0.26" stroke-width="5" stroke-linecap="round"/><path d="M547.8 492.12 q 114.03 -15.91 228.06 0 t 228.06 0" fill="none" stroke="#ffffff" stroke-opacity="0.26" stroke-width="5" stroke-linecap="round"/><path d="M620.76 525.45 q 134.24 -15.91 268.47 0 t 268.47 0" fill="none" stroke="#ffffff" stroke-opacity="0.26" stroke-width="5" stroke-linecap="round"/><path d="M383.56 558.79 q 191.29 -15.91 382.57 0 t 382.57 0" fill="none" stroke="#ffffff" stroke-opacity="0.26" stroke-width="5" stroke-linecap="round"/><path d="M367.86 592.12 q 207.01 -15.91 414.02 0 t 414.02 0" fill="none" stroke="#ffffff" stroke-opacity="0.26" stroke-width="5" stroke-linecap="round"/><path d="M259.37 625.45 q 123.6 -15.91 247.2 0 t 247.2 0" fill="none" stroke="#ffffff" stroke-opacity="0.26" stroke-width="5" stroke-linecap="round"/><path d="M133.12 658.79 q 94.78 -15.91 189.56 0 t 189.56 0" fill="none" stroke="#ffffff" stroke-opacity="0.26" stroke-width="5" stroke-linecap="round"/><path d="M430.6 692.12 q 118.2 -15.91 236.4 0 t 236.4 0" fill="none" stroke="#ffffff" stroke-opacity="0.26" stroke-width="5" stroke-linecap="round"/>
  
  <rect x="0" y="602.73" width="2200" height="77.27" rx="13.64" fill="#fbf8f2"/>
  <rect x="0" y="602.73" width="2200" height="18.18" fill="#ece4d6"/>
  
  <rect x="0" y="680" width="2200" height="320" fill="#fbf8f2"/>
  <rect x="0" y="680" width="2200" height="36.36" fill="#ece4d6"/>
  <path d="M314.29 716.36 V 1000" stroke="#4a3f31" stroke-opacity="0.07" stroke-width="4.55"/><path d="M628.57 716.36 V 1000" stroke="#4a3f31" stroke-opacity="0.07" stroke-width="4.55"/><path d="M942.86 716.36 V 1000" stroke="#4a3f31" stroke-opacity="0.07" stroke-width="4.55"/><path d="M1257.14 716.36 V 1000" stroke="#4a3f31" stroke-opacity="0.07" stroke-width="4.55"/><path d="M1571.43 716.36 V 1000" stroke="#4a3f31" stroke-opacity="0.07" stroke-width="4.55"/><path d="M1885.71 716.36 V 1000" stroke="#4a3f31" stroke-opacity="0.07" stroke-width="4.55"/>
  <path d="M0 814.4 H 2200" stroke="#4a3f31" stroke-opacity="0.06" stroke-width="4.55"/>
  
  <g transform="translate(440 707.27) scale(1.58)">
    <rect x="-128" y="-118" width="136" height="120" rx="7" fill="#fbf8f2"/>
    <rect x="2" y="-84" width="120" height="86" rx="7" fill="#ece4d6"/>
    <rect x="-128" y="-124" width="136" height="12" rx="6" fill="#d9cdb9" opacity="0.55"/>
    <rect x="2" y="-90" width="120" height="10" rx="5" fill="#d9cdb9" opacity="0.45"/>
    <path d="M-98 2 v-52 a25 25 0 0 1 50 0 V2 Z" fill="#1f5468" opacity="0.34"/>
    <path d="M-98 2 v-52 a25 25 0 0 1 50 0 V2" fill="none" stroke="#ece4d6" stroke-width="4"/>
    <rect x="-32" y="-64" width="26" height="32" rx="3" fill="#1f5468" opacity="0.3"/>
    <rect x="28" y="-58" width="28" height="34" rx="3" fill="#1f5468" opacity="0.24"/>
    <rect x="80" y="-58" width="24" height="34" rx="3" fill="#1f5468" opacity="0.2"/>
    <path d="M-60 -124 v-16 M-72 -140 h24 M-60 -140 v-10" stroke="#8a6a3c" stroke-width="3.5" fill="none" opacity="0.6"/>
  </g>
  
  <g>
    <rect x="1012" y="618.62" width="880" height="11.66" rx="3.89" fill="#9c7b51"/>
    <rect x="1008.11" y="628.33" width="7.77" height="11.66" rx="1.94" fill="#9c7b51" opacity="0.92"/><rect x="1040.71" y="628.33" width="7.77" height="11.66" rx="1.94" fill="#9c7b51" opacity="0.92"/><rect x="1073.3" y="628.33" width="7.77" height="11.66" rx="1.94" fill="#9c7b51" opacity="0.92"/><rect x="1105.89" y="628.33" width="7.77" height="11.66" rx="1.94" fill="#9c7b51" opacity="0.92"/><rect x="1138.49" y="628.33" width="7.77" height="11.66" rx="1.94" fill="#9c7b51" opacity="0.92"/><rect x="1171.08" y="628.33" width="7.77" height="11.66" rx="1.94" fill="#9c7b51" opacity="0.92"/><rect x="1203.67" y="628.33" width="7.77" height="11.66" rx="1.94" fill="#9c7b51" opacity="0.92"/><rect x="1236.26" y="628.33" width="7.77" height="11.66" rx="1.94" fill="#9c7b51" opacity="0.92"/><rect x="1268.86" y="628.33" width="7.77" height="11.66" rx="1.94" fill="#9c7b51" opacity="0.92"/><rect x="1301.45" y="628.33" width="7.77" height="11.66" rx="1.94" fill="#9c7b51" opacity="0.92"/><rect x="1334.04" y="628.33" width="7.77" height="11.66" rx="1.94" fill="#9c7b51" opacity="0.92"/><rect x="1366.63" y="628.33" width="7.77" height="11.66" rx="1.94" fill="#9c7b51" opacity="0.92"/><rect x="1399.23" y="628.33" width="7.77" height="11.66" rx="1.94" fill="#9c7b51" opacity="0.92"/><rect x="1431.82" y="628.33" width="7.77" height="11.66" rx="1.94" fill="#9c7b51" opacity="0.92"/><rect x="1464.41" y="628.33" width="7.77" height="11.66" rx="1.94" fill="#9c7b51" opacity="0.92"/><rect x="1497" y="628.33" width="7.77" height="11.66" rx="1.94" fill="#9c7b51" opacity="0.92"/><rect x="1529.6" y="628.33" width="7.77" height="11.66" rx="1.94" fill="#9c7b51" opacity="0.92"/><rect x="1562.19" y="628.33" width="7.77" height="11.66" rx="1.94" fill="#9c7b51" opacity="0.92"/><rect x="1594.78" y="628.33" width="7.77" height="11.66" rx="1.94" fill="#9c7b51" opacity="0.92"/><rect x="1627.37" y="628.33" width="7.77" height="11.66" rx="1.94" fill="#9c7b51" opacity="0.92"/><rect x="1659.97" y="628.33" width="7.77" height="11.66" rx="1.94" fill="#9c7b51" opacity="0.92"/><rect x="1692.56" y="628.33" width="7.77" height="11.66" rx="1.94" fill="#9c7b51" opacity="0.92"/><rect x="1725.15" y="628.33" width="7.77" height="11.66" rx="1.94" fill="#9c7b51" opacity="0.92"/><rect x="1757.74" y="628.33" width="7.77" height="11.66" rx="1.94" fill="#9c7b51" opacity="0.92"/><rect x="1790.34" y="628.33" width="7.77" height="11.66" rx="1.94" fill="#9c7b51" opacity="0.92"/><rect x="1822.93" y="628.33" width="7.77" height="11.66" rx="1.94" fill="#9c7b51" opacity="0.92"/><rect x="1855.52" y="628.33" width="7.77" height="11.66" rx="1.94" fill="#9c7b51" opacity="0.92"/><rect x="1888.11" y="628.33" width="7.77" height="11.66" rx="1.94" fill="#9c7b51" opacity="0.92"/>
    <rect x="1017.83" y="628.33" width="10.68" height="97.13" rx="2.91" fill="#9c7b51"/>
    <rect x="1875.49" y="628.33" width="10.68" height="97.13" rx="2.91" fill="#9c7b51"/>
    <path d="M1017.83 641.93 h 868.34" stroke="#9c7b51" stroke-width="2.91" opacity="0.5"/>
  </g>
  
  <g transform="translate(1144 880) scale(1.36)">
    <path d="M0 0 h78 v10 h-78 Z" fill="#fbf8f2"/>
    <path d="M52 0 l24 -34 h13 l-21 34 Z" fill="#fbf8f2"/>
    <rect x="8" y="-5" width="46" height="6" rx="3" fill="#8a6a3c" opacity="0.35"/>
    <rect x="7" y="10" width="5" height="14" fill="#9c7b51"/>
    <rect x="66" y="10" width="5" height="14" fill="#9c7b51"/>
  </g>
  <g transform="translate(1290.45 880) scale(1.36)">
    <path d="M0 0 h78 v10 h-78 Z" fill="#fbf8f2"/>
    <path d="M52 0 l24 -34 h13 l-21 34 Z" fill="#fbf8f2"/>
    
    <rect x="7" y="10" width="5" height="14" fill="#9c7b51"/>
    <rect x="66" y="10" width="5" height="14" fill="#9c7b51"/>
  </g>
  
  <g transform="translate(1760 950) scale(0.97)">
    
    <rect x="-180" y="-20" width="360" height="20" rx="9" fill="#fbf8f2"/>
    <rect x="-176" y="0" width="352" height="6" rx="3" fill="#ece4d6"/>
    <rect x="-150" y="6" width="12" height="58" fill="#9c7b51"/>
    <rect x="138" y="6" width="12" height="58" fill="#9c7b51"/>
    <ellipse cx="-96" cy="-26" rx="34" ry="10" fill="#ece4d6"/>
    <ellipse cx="96" cy="-26" rx="34" ry="10" fill="#ece4d6"/>
    <path d="M-10 -26 v-34 a13 13 0 0 1 20 0 v34 Z" fill="#8a6a3c" opacity="0.5"/>
    <circle cx="0" cy="-70" r="8" fill="#fff3d8"/>
    <circle cx="0" cy="-70" r="20" fill="#fff3d8" opacity="0.22"/>
    <rect x="-46" y="-52" width="9" height="26" rx="4" fill="#1f5468" opacity="0.32"/>
    <rect x="38" y="-52" width="9" height="26" rx="4" fill="#1f5468" opacity="0.32"/>
  </g>
  
  <g transform="translate(902 748.18) scale(1.49)">
    <circle cx="-14" cy="-58" r="20" fill="#6f7f5c" opacity="0.85"/>
    <circle cx="14" cy="-64" r="22" fill="#4e5c40" opacity="0.75"/>
    <circle cx="0" cy="-82" r="17" fill="#6f7f5c" opacity="0.8"/>
    <path d="M-22 -38 h44 l-7 38 h-30 Z" fill="#8a6a3c" opacity="0.75"/>
    <rect x="-25" y="-42" width="50" height="8" rx="3" fill="#8a6a3c" opacity="0.85"/>
  </g>
  
  <g transform="translate(2090 1020) scale(2.2)">
    <path d="M-4 0 v-54 q -3 -18 8 -28 M-2 -34 l -16 -14 M0 -46 l 16 -12" fill="none" stroke="#9c7b51" stroke-width="8" stroke-linecap="round"/>
    <circle cx="-26" cy="-84" r="30" fill="#4e5c40" opacity="0.85"/>
    <circle cx="20" cy="-94" r="34" fill="#4e5c40" opacity="0.72"/>
    <circle cx="0" cy="-116" r="26" fill="#4e5c40" opacity="0.9"/>
    <circle cx="-42" cy="-108" r="19" fill="#4e5c40" opacity="0.7"/>
    <circle cx="38" cy="-70" r="18" fill="#4e5c40" opacity="0.78"/>
  </g>
  <g transform="translate(88 300) scale(1.49 1.49)"><circle cx="25.69" cy="-22.18" r="18.24" fill="#c76a7a" opacity="0.56"/><circle cx="-17.9" cy="-126.63" r="13.57" fill="#4e5c40" opacity="0.55"/><circle cx="41.07" cy="-24.81" r="6.23" fill="#4e5c40" opacity="0.52"/><circle cx="37.92" cy="-55.91" r="9.15" fill="#c76a7a" opacity="0.5"/><circle cx="-19.26" cy="-137.7" r="13.01" fill="#4e5c40" opacity="0.5"/><circle cx="66.29" cy="-87.92" r="11.97" fill="#4e5c40" opacity="0.81"/><circle cx="81.58" cy="-56.55" r="13.03" fill="#c76a7a" opacity="0.57"/><circle cx="18.44" cy="-100.07" r="6.31" fill="#4e5c40" opacity="0.49"/><circle cx="-14.05" cy="-120.35" r="9.18" fill="#4e5c40" opacity="0.65"/><circle cx="56.39" cy="-125.42" r="13.47" fill="#c76a7a" opacity="0.7"/><circle cx="-83.32" cy="-60.06" r="8.27" fill="#4e5c40" opacity="0.5"/><circle cx="-5.75" cy="-49.57" r="10.64" fill="#4e5c40" opacity="0.77"/><circle cx="-68.14" cy="-84.54" r="13.74" fill="#c76a7a" opacity="0.75"/><circle cx="-66.23" cy="-94.86" r="10.43" fill="#4e5c40" opacity="0.52"/><circle cx="-70.4" cy="-62.47" r="11.41" fill="#4e5c40" opacity="0.77"/><circle cx="-38.07" cy="-126.13" r="10.06" fill="#c76a7a" opacity="0.52"/><circle cx="64.62" cy="-137.07" r="15.93" fill="#4e5c40" opacity="0.45"/><circle cx="24.35" cy="-88.46" r="14.36" fill="#4e5c40" opacity="0.88"/><circle cx="-56.92" cy="-115.61" r="11.49" fill="#c76a7a" opacity="0.63"/><circle cx="-57.33" cy="-60.82" r="6.17" fill="#4e5c40" opacity="0.53"/><circle cx="36.06" cy="-72.63" r="14.76" fill="#4e5c40" opacity="0.6"/><circle cx="-37.97" cy="-22.3" r="12.69" fill="#c76a7a" opacity="0.79"/><circle cx="-51.22" cy="-116.78" r="11.63" fill="#4e5c40" opacity="0.72"/><circle cx="-86.01" cy="-122.96" r="10.96" fill="#4e5c40" opacity="0.57"/><circle cx="-51.03" cy="-106.71" r="11.47" fill="#c76a7a" opacity="0.72"/><circle cx="-62.8" cy="-82.79" r="17.77" fill="#4e5c40" opacity="0.65"/></g>
  
  <g transform="translate(726 734.55) scale(1.1)">
    <circle cx="0" cy="-22" r="40" fill="#fff3d8" opacity="0.22"/>
    <rect x="-13" y="-36" width="26" height="36" rx="4" fill="none" stroke="#4a3f31" stroke-width="3.4" opacity="0.75"/>
    <path d="M-13 -36 h26 M0 -46 v10" stroke="#4a3f31" stroke-width="3.4" opacity="0.75" fill="none"/>
    <rect x="-7" y="-30" width="14" height="24" rx="3" fill="#fff3d8"/>
  </g></g>
  <rect width="2200" height="1000" fill="url(#veil)"/>
  <g>
    <g transform="translate(83.6 960.1) scale(0.73)" fill="none" stroke="#ffffff" stroke-width="2.4" opacity="0.8">
    <path d="M0 -22 C 7 -9, 9 -7, 22 0 C 9 7, 7 9, 0 22 C -7 9, -9 7, -22 0 C -9 -7, -7 -9, 0 -22 Z"/>
    <circle cx="0" cy="0" r="6.5"/>
  </g>
    <text x="112.1" y="971.5"
      font-family="Jost, Futura, 'Helvetica Neue', Helvetica, Arial, sans-serif"
      font-size="19" letter-spacing="4.94"
      fill="#ffffff" fill-opacity="0.82">ELYSIS</text>
  </g>
</svg>
