<svg xmlns="http://www.w3.org/2000/svg" viewBox="0 0 2200 1238" width="2200" height="1238" role="img" aria-label="Elysis, Paros, placeholder artwork">
  <defs>
    <linearGradient id="sky" x1="0" y1="0" x2="0" y2="1">
      <stop offset="0%" stop-color="#6e6a8e"/>
      <stop offset="100%" stop-color="#f2c49a"/>
    </linearGradient>
    <linearGradient id="sea" x1="0" y1="0" x2="0" y2="1">
      <stop offset="0%" stop-color="#3b5e7a"/>
      <stop offset="100%" stop-color="#22384f"/>
    </linearGradient>
    <linearGradient id="water" x1="0" y1="0" x2="1" y2="1">
      <stop offset="0%" stop-color="#8fd0d8"/>
      <stop offset="100%" stop-color="#2f8ba0"/>
    </linearGradient>
    <radialGradient id="glow">
      <stop offset="0%" stop-color="#ffd9a1" stop-opacity="0.6"/>
      <stop offset="100%" stop-color="#ffd9a1" stop-opacity="0"/>
    </radialGradient>
    <linearGradient id="veil" x1="0" y1="0" x2="0" y2="1">
      <stop offset="0%" stop-color="#000000" stop-opacity="0.14"/>
      <stop offset="42%" stop-color="#000000" stop-opacity="0"/>
      <stop offset="100%" stop-color="#000000" stop-opacity="0.34"/>
    </linearGradient>
  </defs>
  
  <g>
  <rect width="2200" height="1238" fill="url(#sky)"/>
  <circle cx="1584" cy="216.4" r="248.73" fill="url(#glow)"/>
  <circle cx="1584" cy="216.4" r="73.15" fill="#ffd9a1" opacity="0.95"/>
  
  <path d="M0 470.44 C 176 307.28, 572 377.21, 1100 470.44 Z" fill="#22384f" opacity="0.2"/>
  <path d="M968 470.44 C 1364 377.21, 1848 307.28, 2200 436.68 L 2200 470.44 Z" fill="#22384f" opacity="0.26"/>
  
  <rect x="0" y="470.44" width="2200" height="371.4" fill="url(#sea)"/>
  <rect x="0" y="470.44" width="2200" height="3.94" fill="#ffffff" opacity="0.4"/>
  <path d="M685.57 526.71 q 106.92 -19.7 213.84 0 t 213.84 0" fill="none" stroke="#ffffff" stroke-opacity="0.26" stroke-width="6.19" stroke-linecap="round"/><path d="M396.6 567.98 q 164.83 -19.7 329.66 0 t 329.66 0" fill="none" stroke="#ffffff" stroke-opacity="0.26" stroke-width="6.19" stroke-linecap="round"/><path d="M867.04 609.25 q 108.34 -19.7 216.69 0 t 216.69 0" fill="none" stroke="#ffffff" stroke-opacity="0.26" stroke-width="6.19" stroke-linecap="round"/><path d="M827.6 650.51 q 212.25 -19.7 424.5 0 t 424.5 0" fill="none" stroke="#ffffff" stroke-opacity="0.26" stroke-width="6.19" stroke-linecap="round"/><path d="M454.13 691.78 q 148.16 -19.7 296.33 0 t 296.33 0" fill="none" stroke="#ffffff" stroke-opacity="0.26" stroke-width="6.19" stroke-linecap="round"/><path d="M762.35 733.05 q 131.41 -19.7 262.82 0 t 262.82 0" fill="none" stroke="#ffffff" stroke-opacity="0.26" stroke-width="6.19" stroke-linecap="round"/><path d="M633.21 774.31 q 212.57 -19.7 425.15 0 t 425.15 0" fill="none" stroke="#ffffff" stroke-opacity="0.26" stroke-width="6.19" stroke-linecap="round"/><path d="M80.66 815.58 q 154.84 -19.7 309.68 0 t 309.68 0" fill="none" stroke="#ffffff" stroke-opacity="0.26" stroke-width="6.19" stroke-linecap="round"/><path d="M376.09 856.85 q 182.57 -19.7 365.14 0 t 365.14 0" fill="none" stroke="#ffffff" stroke-opacity="0.26" stroke-width="6.19" stroke-linecap="round"/>
  
  <rect x="0" y="746.18" width="2200" height="95.66" rx="16.88" fill="#f6ead9"/>
  <rect x="0" y="746.18" width="2200" height="22.51" fill="#e3d0b9"/>
  
  <rect x="0" y="841.84" width="2200" height="396.16" fill="#f6ead9"/>
  <rect x="0" y="841.84" width="2200" height="45.02" fill="#e3d0b9"/>
  <path d="M314.29 886.86 V 1238" stroke="#3b2f26" stroke-opacity="0.07" stroke-width="5.63"/><path d="M628.57 886.86 V 1238" stroke="#3b2f26" stroke-opacity="0.07" stroke-width="5.63"/><path d="M942.86 886.86 V 1238" stroke="#3b2f26" stroke-opacity="0.07" stroke-width="5.63"/><path d="M1257.14 886.86 V 1238" stroke="#3b2f26" stroke-opacity="0.07" stroke-width="5.63"/><path d="M1571.43 886.86 V 1238" stroke="#3b2f26" stroke-opacity="0.07" stroke-width="5.63"/><path d="M1885.71 886.86 V 1238" stroke="#3b2f26" stroke-opacity="0.07" stroke-width="5.63"/>
  <path d="M0 1008.23 H 2200" stroke="#3b2f26" stroke-opacity="0.06" stroke-width="5.63"/>
  
  <g transform="translate(440 875.6) scale(1.95)">
    <rect x="-128" y="-118" width="136" height="120" rx="7" fill="#f6ead9"/>
    <rect x="2" y="-84" width="120" height="86" rx="7" fill="#e3d0b9"/>
    <rect x="-128" y="-124" width="136" height="12" rx="6" fill="#c9b295" opacity="0.55"/>
    <rect x="2" y="-90" width="120" height="10" rx="5" fill="#c9b295" opacity="0.45"/>
    <path d="M-98 2 v-52 a25 25 0 0 1 50 0 V2 Z" fill="#22384f" opacity="0.34"/>
    <path d="M-98 2 v-52 a25 25 0 0 1 50 0 V2" fill="none" stroke="#e3d0b9" stroke-width="4"/>
    <rect x="-32" y="-64" width="26" height="32" rx="3" fill="#22384f" opacity="0.3"/>
    <rect x="28" y="-58" width="28" height="34" rx="3" fill="#22384f" opacity="0.24"/>
    <rect x="80" y="-58" width="24" height="34" rx="3" fill="#22384f" opacity="0.2"/>
    <path d="M-60 -124 v-16 M-72 -140 h24 M-60 -140 v-10" stroke="#b07d42" stroke-width="3.5" fill="none" opacity="0.6"/>
  </g>
  
  <g>
    <rect x="1012" y="765.85" width="880" height="14.43" rx="4.81" fill="#8d6b44"/>
    <rect x="1007.19" y="777.87" width="9.62" height="14.43" rx="2.4" fill="#8d6b44" opacity="0.92"/><rect x="1047.19" y="777.87" width="9.62" height="14.43" rx="2.4" fill="#8d6b44" opacity="0.92"/><rect x="1087.19" y="777.87" width="9.62" height="14.43" rx="2.4" fill="#8d6b44" opacity="0.92"/><rect x="1127.19" y="777.87" width="9.62" height="14.43" rx="2.4" fill="#8d6b44" opacity="0.92"/><rect x="1167.19" y="777.87" width="9.62" height="14.43" rx="2.4" fill="#8d6b44" opacity="0.92"/><rect x="1207.19" y="777.87" width="9.62" height="14.43" rx="2.4" fill="#8d6b44" opacity="0.92"/><rect x="1247.19" y="777.87" width="9.62" height="14.43" rx="2.4" fill="#8d6b44" opacity="0.92"/><rect x="1287.19" y="777.87" width="9.62" height="14.43" rx="2.4" fill="#8d6b44" opacity="0.92"/><rect x="1327.19" y="777.87" width="9.62" height="14.43" rx="2.4" fill="#8d6b44" opacity="0.92"/><rect x="1367.19" y="777.87" width="9.62" height="14.43" rx="2.4" fill="#8d6b44" opacity="0.92"/><rect x="1407.19" y="777.87" width="9.62" height="14.43" rx="2.4" fill="#8d6b44" opacity="0.92"/><rect x="1447.19" y="777.87" width="9.62" height="14.43" rx="2.4" fill="#8d6b44" opacity="0.92"/><rect x="1487.19" y="777.87" width="9.62" height="14.43" rx="2.4" fill="#8d6b44" opacity="0.92"/><rect x="1527.19" y="777.87" width="9.62" height="14.43" rx="2.4" fill="#8d6b44" opacity="0.92"/><rect x="1567.19" y="777.87" width="9.62" height="14.43" rx="2.4" fill="#8d6b44" opacity="0.92"/><rect x="1607.19" y="777.87" width="9.62" height="14.43" rx="2.4" fill="#8d6b44" opacity="0.92"/><rect x="1647.19" y="777.87" width="9.62" height="14.43" rx="2.4" fill="#8d6b44" opacity="0.92"/><rect x="1687.19" y="777.87" width="9.62" height="14.43" rx="2.4" fill="#8d6b44" opacity="0.92"/><rect x="1727.19" y="777.87" width="9.62" height="14.43" rx="2.4" fill="#8d6b44" opacity="0.92"/><rect x="1767.19" y="777.87" width="9.62" height="14.43" rx="2.4" fill="#8d6b44" opacity="0.92"/><rect x="1807.19" y="777.87" width="9.62" height="14.43" rx="2.4" fill="#8d6b44" opacity="0.92"/><rect x="1847.19" y="777.87" width="9.62" height="14.43" rx="2.4" fill="#8d6b44" opacity="0.92"/><rect x="1887.19" y="777.87" width="9.62" height="14.43" rx="2.4" fill="#8d6b44" opacity="0.92"/>
    <rect x="1019.21" y="777.87" width="13.23" height="120.24" rx="3.61" fill="#8d6b44"/>
    <rect x="1871.56" y="777.87" width="13.23" height="120.24" rx="3.61" fill="#8d6b44"/>
    <path d="M1019.21 794.71 h 865.57" stroke="#8d6b44" stroke-width="3.61" opacity="0.5"/>
  </g>
  
  <g transform="translate(1144 1089.44) scale(1.68)">
    <path d="M0 0 h78 v10 h-78 Z" fill="#f6ead9"/>
    <path d="M52 0 l24 -34 h13 l-21 34 Z" fill="#f6ead9"/>
    <rect x="8" y="-5" width="46" height="6" rx="3" fill="#b07d42" opacity="0.35"/>
    <rect x="7" y="10" width="5" height="14" fill="#8d6b44"/>
    <rect x="66" y="10" width="5" height="14" fill="#8d6b44"/>
  </g>
  <g transform="translate(1325.31 1089.44) scale(1.68)">
    <path d="M0 0 h78 v10 h-78 Z" fill="#f6ead9"/>
    <path d="M52 0 l24 -34 h13 l-21 34 Z" fill="#f6ead9"/>
    
    <rect x="7" y="10" width="5" height="14" fill="#8d6b44"/>
    <rect x="66" y="10" width="5" height="14" fill="#8d6b44"/>
  </g>
  
  <g transform="translate(1760 1176.1) scale(1.21)">
    
    <rect x="-180" y="-20" width="360" height="20" rx="9" fill="#f6ead9"/>
    <rect x="-176" y="0" width="352" height="6" rx="3" fill="#e3d0b9"/>
    <rect x="-150" y="6" width="12" height="58" fill="#8d6b44"/>
    <rect x="138" y="6" width="12" height="58" fill="#8d6b44"/>
    <ellipse cx="-96" cy="-26" rx="34" ry="10" fill="#e3d0b9"/>
    <ellipse cx="96" cy="-26" rx="34" ry="10" fill="#e3d0b9"/>
    <path d="M-10 -26 v-34 a13 13 0 0 1 20 0 v34 Z" fill="#b07d42" opacity="0.5"/>
    <circle cx="0" cy="-70" r="8" fill="#ffd9a1"/>
    <circle cx="0" cy="-70" r="20" fill="#ffd9a1" opacity="0.22"/>
    <rect x="-46" y="-52" width="9" height="26" rx="4" fill="#22384f" opacity="0.32"/>
    <rect x="38" y="-52" width="9" height="26" rx="4" fill="#22384f" opacity="0.32"/>
  </g>
  
  <g transform="translate(902 926.25) scale(1.84)">
    <circle cx="-14" cy="-58" r="20" fill="#5c6a4e" opacity="0.85"/>
    <circle cx="14" cy="-64" r="22" fill="#3f4a37" opacity="0.75"/>
    <circle cx="0" cy="-82" r="17" fill="#5c6a4e" opacity="0.8"/>
    <path d="M-22 -38 h44 l-7 38 h-30 Z" fill="#b07d42" opacity="0.75"/>
    <rect x="-25" y="-42" width="50" height="8" rx="3" fill="#b07d42" opacity="0.85"/>
  </g>
  
  <g transform="translate(2090 1262.76) scale(2.72)">
    <path d="M-4 0 v-54 q -3 -18 8 -28 M-2 -34 l -16 -14 M0 -46 l 16 -12" fill="none" stroke="#8d6b44" stroke-width="8" stroke-linecap="round"/>
    <circle cx="-26" cy="-84" r="30" fill="#3f4a37" opacity="0.85"/>
    <circle cx="20" cy="-94" r="34" fill="#3f4a37" opacity="0.72"/>
    <circle cx="0" cy="-116" r="26" fill="#3f4a37" opacity="0.9"/>
    <circle cx="-42" cy="-108" r="19" fill="#3f4a37" opacity="0.7"/>
    <circle cx="38" cy="-70" r="18" fill="#3f4a37" opacity="0.78"/>
  </g>
  <g transform="translate(88 371.4) scale(1.84 1.84)"><circle cx="-14.34" cy="-88.11" r="17.71" fill="#c76a7a" opacity="0.66"/><circle cx="63.81" cy="-36.89" r="15.58" fill="#3f4a37" opacity="0.74"/><circle cx="27.71" cy="-17.1" r="16.34" fill="#3f4a37" opacity="0.82"/><circle cx="-35.08" cy="-57.53" r="11.02" fill="#c76a7a" opacity="0.6"/><circle cx="47.28" cy="-1.22" r="8.94" fill="#3f4a37" opacity="0.85"/><circle cx="19.22" cy="-76.25" r="12.91" fill="#3f4a37" opacity="0.82"/><circle cx="-13.24" cy="-109.06" r="7.11" fill="#c76a7a" opacity="0.58"/><circle cx="-74.93" cy="-61.08" r="11.21" fill="#3f4a37" opacity="0.85"/><circle cx="-66.71" cy="-79.7" r="15.22" fill="#3f4a37" opacity="0.7"/><circle cx="-43.15" cy="-118.08" r="6.59" fill="#c76a7a" opacity="0.46"/><circle cx="5.89" cy="-80.43" r="14.7" fill="#3f4a37" opacity="0.83"/><circle cx="1.74" cy="-134.82" r="11.02" fill="#3f4a37" opacity="0.78"/><circle cx="-79.45" cy="-120" r="7.64" fill="#c76a7a" opacity="0.47"/><circle cx="-12.34" cy="-106.57" r="17.31" fill="#3f4a37" opacity="0.57"/><circle cx="2.76" cy="-29.97" r="6.85" fill="#3f4a37" opacity="0.67"/><circle cx="-82.61" cy="-106.38" r="17.54" fill="#c76a7a" opacity="0.49"/><circle cx="-80.72" cy="-43.93" r="9.9" fill="#3f4a37" opacity="0.83"/><circle cx="45" cy="-103.01" r="10.47" fill="#3f4a37" opacity="0.59"/><circle cx="-9.37" cy="-133.91" r="8.18" fill="#c76a7a" opacity="0.55"/><circle cx="7.26" cy="-138.96" r="17.25" fill="#3f4a37" opacity="0.67"/><circle cx="23.17" cy="-24.95" r="14.31" fill="#3f4a37" opacity="0.6"/><circle cx="72.17" cy="-137.5" r="8.54" fill="#c76a7a" opacity="0.7"/><circle cx="36.33" cy="-108.31" r="8.36" fill="#3f4a37" opacity="0.61"/><circle cx="6.17" cy="-52.8" r="14.19" fill="#3f4a37" opacity="0.86"/><circle cx="-24.35" cy="-25.02" r="12.35" fill="#c76a7a" opacity="0.88"/><circle cx="-39.38" cy="-30.92" r="7.98" fill="#3f4a37" opacity="0.77"/></g>
  
  <g transform="translate(726 909.37) scale(1.36)">
    <circle cx="0" cy="-22" r="40" fill="#ffd9a1" opacity="0.22"/>
    <rect x="-13" y="-36" width="26" height="36" rx="4" fill="none" stroke="#3b2f26" stroke-width="3.4" opacity="0.75"/>
    <path d="M-13 -36 h26 M0 -46 v10" stroke="#3b2f26" stroke-width="3.4" opacity="0.75" fill="none"/>
    <rect x="-7" y="-30" width="14" height="24" rx="3" fill="#ffd9a1"/>
  </g></g>
  <rect width="2200" height="1238" fill="url(#veil)"/>
  <g>
    <g transform="translate(83.6 1188.6) scale(0.9)" fill="none" stroke="#ffffff" stroke-width="2.4" opacity="0.8">
    <path d="M0 -22 C 7 -9, 9 -7, 22 0 C 9 7, 7 9, 0 22 C -7 9, -9 7, -22 0 C -9 -7, -7 -9, 0 -22 Z"/>
    <circle cx="0" cy="0" r="6.5"/>
  </g>
    <text x="118.88" y="1202.72"
      font-family="Jost, Futura, 'Helvetica Neue', Helvetica, Arial, sans-serif"
      font-size="23.52" letter-spacing="6.12"
      fill="#ffffff" fill-opacity="0.82">ELYSIS, PAROS</text>
  </g>
</svg>
