<svg xmlns="http://www.w3.org/2000/svg" viewBox="0 0 1600 1200" width="1600" height="1200" role="img" aria-label="Residence, placeholder artwork">
  <defs>
    <linearGradient id="sky" x1="0" y1="0" x2="0" y2="1">
      <stop offset="0%" stop-color="#6e6a8e"/>
      <stop offset="100%" stop-color="#f2c49a"/>
    </linearGradient>
    <linearGradient id="sea" x1="0" y1="0" x2="0" y2="1">
      <stop offset="0%" stop-color="#3b5e7a"/>
      <stop offset="100%" stop-color="#22384f"/>
    </linearGradient>
    <linearGradient id="water" x1="0" y1="0" x2="1" y2="1">
      <stop offset="0%" stop-color="#8fd0d8"/>
      <stop offset="100%" stop-color="#2f8ba0"/>
    </linearGradient>
    <radialGradient id="glow">
      <stop offset="0%" stop-color="#ffd9a1" stop-opacity="0.6"/>
      <stop offset="100%" stop-color="#ffd9a1" stop-opacity="0"/>
    </radialGradient>
    <linearGradient id="veil" x1="0" y1="0" x2="0" y2="1">
      <stop offset="0%" stop-color="#000000" stop-opacity="0.14"/>
      <stop offset="42%" stop-color="#000000" stop-opacity="0"/>
      <stop offset="100%" stop-color="#000000" stop-opacity="0.34"/>
    </linearGradient>
  </defs>
  
  <g>
  <rect width="1600" height="1200" fill="url(#sky)"/>
  <circle cx="288" cy="176.64" r="222.55" fill="url(#glow)"/>
  <circle cx="288" cy="176.64" r="65.45" fill="#ffd9a1" opacity="0.95"/>
  
  <path d="M0 384 C 128 190.56, 416 254.29, 800 384 Z" fill="#22384f" opacity="0.2"/>
  <path d="M704 384 C 992 254.29, 1344 190.56, 1600 351.27 L 1600 384 Z" fill="#22384f" opacity="0.26"/>
  
  <rect x="0" y="384" width="1600" height="336" fill="url(#sea)"/>
  <rect x="0" y="384" width="1600" height="3.82" fill="#ffffff" opacity="0.4"/>
  <path d="M385.02 438.55 q 69.2 -19.09 138.39 0 t 138.39 0" fill="none" stroke="#ffffff" stroke-opacity="0.26" stroke-width="6" stroke-linecap="round"/><path d="M148.7 475.88 q 133.46 -19.09 266.93 0 t 266.93 0" fill="none" stroke="#ffffff" stroke-opacity="0.26" stroke-width="6" stroke-linecap="round"/><path d="M454.4 513.21 q 155.54 -19.09 311.08 0 t 311.08 0" fill="none" stroke="#ffffff" stroke-opacity="0.26" stroke-width="6" stroke-linecap="round"/><path d="M64.51 550.55 q 161.93 -19.09 323.86 0 t 323.86 0" fill="none" stroke="#ffffff" stroke-opacity="0.26" stroke-width="6" stroke-linecap="round"/><path d="M246.4 587.88 q 166.49 -19.09 332.98 0 t 332.98 0" fill="none" stroke="#ffffff" stroke-opacity="0.26" stroke-width="6" stroke-linecap="round"/><path d="M434.53 625.21 q 112.25 -19.09 224.5 0 t 224.5 0" fill="none" stroke="#ffffff" stroke-opacity="0.26" stroke-width="6" stroke-linecap="round"/><path d="M439.39 662.55 q 67.98 -19.09 135.96 0 t 135.96 0" fill="none" stroke="#ffffff" stroke-opacity="0.26" stroke-width="6" stroke-linecap="round"/><path d="M93.51 699.88 q 140.26 -19.09 280.52 0 t 280.52 0" fill="none" stroke="#ffffff" stroke-opacity="0.26" stroke-width="6" stroke-linecap="round"/><path d="M323.8 737.21 q 142.76 -19.09 285.51 0 t 285.51 0" fill="none" stroke="#ffffff" stroke-opacity="0.26" stroke-width="6" stroke-linecap="round"/>
  
  <rect x="0" y="720" width="1600" height="480" fill="#f6ead9"/>
  <rect x="0" y="720" width="1600" height="43.64" fill="#e3d0b9"/>
  <path d="M228.57 763.64 V 1200" stroke="#3b2f26" stroke-opacity="0.07" stroke-width="5.45"/><path d="M457.14 763.64 V 1200" stroke="#3b2f26" stroke-opacity="0.07" stroke-width="5.45"/><path d="M685.71 763.64 V 1200" stroke="#3b2f26" stroke-opacity="0.07" stroke-width="5.45"/><path d="M914.29 763.64 V 1200" stroke="#3b2f26" stroke-opacity="0.07" stroke-width="5.45"/><path d="M1142.86 763.64 V 1200" stroke="#3b2f26" stroke-opacity="0.07" stroke-width="5.45"/><path d="M1371.43 763.64 V 1200" stroke="#3b2f26" stroke-opacity="0.07" stroke-width="5.45"/>
  <path d="M0 921.6 H 1600" stroke="#3b2f26" stroke-opacity="0.06" stroke-width="5.45"/>
  
  <g transform="translate(480 736.36) scale(2.09)">
    <rect x="-128" y="-118" width="136" height="120" rx="7" fill="#f6ead9"/>
    <rect x="2" y="-84" width="120" height="86" rx="7" fill="#e3d0b9"/>
    <rect x="-128" y="-124" width="136" height="12" rx="6" fill="#c9b295" opacity="0.55"/>
    <rect x="2" y="-90" width="120" height="10" rx="5" fill="#c9b295" opacity="0.45"/>
    <path d="M-98 2 v-52 a25 25 0 0 1 50 0 V2 Z" fill="#22384f" opacity="0.34"/>
    <path d="M-98 2 v-52 a25 25 0 0 1 50 0 V2" fill="none" stroke="#e3d0b9" stroke-width="4"/>
    <rect x="-32" y="-64" width="26" height="32" rx="3" fill="#22384f" opacity="0.3"/>
    <rect x="28" y="-58" width="28" height="34" rx="3" fill="#22384f" opacity="0.24"/>
    <rect x="80" y="-58" width="24" height="34" rx="3" fill="#22384f" opacity="0.2"/>
    <path d="M-60 -124 v-16 M-72 -140 h24 M-60 -140 v-10" stroke="#b07d42" stroke-width="3.5" fill="none" opacity="0.6"/>
  </g>
  
  <g>
    <rect x="628.64" y="801.36" width="886.73" height="286.73" rx="17.05" fill="#f6ead9" opacity="0.9"/>
    <rect x="640" y="812.73" width="864" height="264" rx="9.47" fill="url(#water)"/>
    <path d="M1073.12 996.63 q 15.15 -4.92 30.3 0 t 30.3 0" fill="none" stroke="#ffffff" stroke-opacity="0.45" stroke-width="2.08" stroke-linecap="round"/><path d="M747.51 964.93 q 15.15 -4.92 30.3 0 t 30.3 0" fill="none" stroke="#ffffff" stroke-opacity="0.45" stroke-width="2.08" stroke-linecap="round"/><path d="M1050.52 903.6 q 15.15 -4.92 30.3 0 t 30.3 0" fill="none" stroke="#ffffff" stroke-opacity="0.45" stroke-width="2.08" stroke-linecap="round"/><path d="M711.92 937.71 q 15.15 -4.92 30.3 0 t 30.3 0" fill="none" stroke="#ffffff" stroke-opacity="0.45" stroke-width="2.08" stroke-linecap="round"/><path d="M872.46 995.61 q 15.15 -4.92 30.3 0 t 30.3 0" fill="none" stroke="#ffffff" stroke-opacity="0.45" stroke-width="2.08" stroke-linecap="round"/><path d="M778.37 901.06 q 15.15 -4.92 30.3 0 t 30.3 0" fill="none" stroke="#ffffff" stroke-opacity="0.45" stroke-width="2.08" stroke-linecap="round"/>
  </g>
  
  <g transform="translate(96 1116) scale(1.91)">
    <path d="M0 0 h78 v10 h-78 Z" fill="#f6ead9"/>
    <path d="M52 0 l24 -34 h13 l-21 34 Z" fill="#f6ead9"/>
    <rect x="8" y="-5" width="46" height="6" rx="3" fill="#b07d42" opacity="0.35"/>
    <rect x="7" y="10" width="5" height="14" fill="#8d6b44"/>
    <rect x="66" y="10" width="5" height="14" fill="#8d6b44"/>
  </g>
  <g transform="translate(302.26 1116) scale(1.91)">
    <path d="M0 0 h78 v10 h-78 Z" fill="#f6ead9"/>
    <path d="M52 0 l24 -34 h13 l-21 34 Z" fill="#f6ead9"/>
    
    <rect x="7" y="10" width="5" height="14" fill="#8d6b44"/>
    <rect x="66" y="10" width="5" height="14" fill="#8d6b44"/>
  </g>
  
  <g transform="translate(1568 1188) scale(2.33)">
    <path d="M-4 0 v-54 q -3 -18 8 -28 M-2 -34 l -16 -14 M0 -46 l 16 -12" fill="none" stroke="#8d6b44" stroke-width="8" stroke-linecap="round"/>
    <circle cx="-26" cy="-84" r="30" fill="#3f4a37" opacity="0.85"/>
    <circle cx="20" cy="-94" r="34" fill="#3f4a37" opacity="0.72"/>
    <circle cx="0" cy="-116" r="26" fill="#3f4a37" opacity="0.9"/>
    <circle cx="-42" cy="-108" r="19" fill="#3f4a37" opacity="0.7"/>
    <circle cx="38" cy="-70" r="18" fill="#3f4a37" opacity="0.78"/>
  </g>
  <path transform="translate(32 758.18) scale(1.78)" d="M0 0 c -20 -8 -22 -76 0 -122 c 22 46 20 114 0 122 Z" fill="#3f4a37" opacity="0.82"/>
  
  <g transform="translate(576 1188) scale(1.89)">
    <circle cx="-14" cy="-58" r="20" fill="#5c6a4e" opacity="0.85"/>
    <circle cx="14" cy="-64" r="22" fill="#3f4a37" opacity="0.75"/>
    <circle cx="0" cy="-82" r="17" fill="#5c6a4e" opacity="0.8"/>
    <path d="M-22 -38 h44 l-7 38 h-30 Z" fill="#b07d42" opacity="0.75"/>
    <rect x="-25" y="-42" width="50" height="8" rx="3" fill="#b07d42" opacity="0.85"/>
  </g></g>
  <rect width="1600" height="1200" fill="url(#veil)"/>
  <g>
    <g transform="translate(60.8 1152.12) scale(0.88)" fill="none" stroke="#ffffff" stroke-width="2.4" opacity="0.8">
    <path d="M0 -22 C 7 -9, 9 -7, 22 0 C 9 7, 7 9, 0 22 C -7 9, -9 7, -22 0 C -9 -7, -7 -9, 0 -22 Z"/>
    <circle cx="0" cy="0" r="6.5"/>
  </g>
    <text x="95" y="1165.8"
      font-family="Jost, Futura, 'Helvetica Neue', Helvetica, Arial, sans-serif"
      font-size="22.8" letter-spacing="5.93"
      fill="#ffffff" fill-opacity="0.82">RESIDENCE</text>
  </g>
</svg>
