<svg xmlns="http://www.w3.org/2000/svg" viewBox="0 0 1600 1200" width="1600" height="1200" role="img" aria-label="Suite terrace, Aegean view, placeholder artwork">
  <defs>
    <linearGradient id="sky" x1="0" y1="0" x2="0" y2="1">
      <stop offset="0%" stop-color="#bcd8e6"/>
      <stop offset="100%" stop-color="#eef4f3"/>
    </linearGradient>
    <linearGradient id="sea" x1="0" y1="0" x2="0" y2="1">
      <stop offset="0%" stop-color="#3a7f99"/>
      <stop offset="100%" stop-color="#1f5468"/>
    </linearGradient>
    <linearGradient id="water" x1="0" y1="0" x2="1" y2="1">
      <stop offset="0%" stop-color="#8fd0d8"/>
      <stop offset="100%" stop-color="#2f8ba0"/>
    </linearGradient>
    <radialGradient id="glow">
      <stop offset="0%" stop-color="#fff3d8" stop-opacity="0.6"/>
      <stop offset="100%" stop-color="#fff3d8" stop-opacity="0"/>
    </radialGradient>
    <linearGradient id="veil" x1="0" y1="0" x2="0" y2="1">
      <stop offset="0%" stop-color="#000000" stop-opacity="0.14"/>
      <stop offset="42%" stop-color="#000000" stop-opacity="0"/>
      <stop offset="100%" stop-color="#000000" stop-opacity="0.34"/>
    </linearGradient>
  </defs>
  
  <g>
  <rect width="1600" height="1200" fill="url(#sky)"/>
  <circle cx="1152" cy="209.76" r="241.09" fill="url(#glow)"/>
  <circle cx="1152" cy="209.76" r="70.91" fill="#fff3d8" opacity="0.95"/>
  
  <path d="M0 456 C 128 270.65, 416 362.4, 800 456 Z" fill="#1f5468" opacity="0.2"/>
  <path d="M704 456 C 992 362.4, 1344 270.65, 1600 423.27 L 1600 456 Z" fill="#1f5468" opacity="0.26"/>
  
  <rect x="0" y="456" width="1600" height="360" fill="url(#sea)"/>
  <rect x="0" y="456" width="1600" height="3.82" fill="#ffffff" opacity="0.4"/>
  <path d="M210.23 510.55 q 105.14 -19.09 210.28 0 t 210.28 0" fill="none" stroke="#ffffff" stroke-opacity="0.26" stroke-width="6" stroke-linecap="round"/><path d="M111.54 550.55 q 134.35 -19.09 268.69 0 t 268.69 0" fill="none" stroke="#ffffff" stroke-opacity="0.26" stroke-width="6" stroke-linecap="round"/><path d="M121.92 590.55 q 153.93 -19.09 307.85 0 t 307.85 0" fill="none" stroke="#ffffff" stroke-opacity="0.26" stroke-width="6" stroke-linecap="round"/><path d="M18.23 630.55 q 99.36 -19.09 198.72 0 t 198.72 0" fill="none" stroke="#ffffff" stroke-opacity="0.26" stroke-width="6" stroke-linecap="round"/><path d="M154.99 670.55 q 147.71 -19.09 295.41 0 t 295.41 0" fill="none" stroke="#ffffff" stroke-opacity="0.26" stroke-width="6" stroke-linecap="round"/><path d="M419.9 710.55 q 88.55 -19.09 177.11 0 t 177.11 0" fill="none" stroke="#ffffff" stroke-opacity="0.26" stroke-width="6" stroke-linecap="round"/><path d="M311.99 750.55 q 124.05 -19.09 248.1 0 t 248.1 0" fill="none" stroke="#ffffff" stroke-opacity="0.26" stroke-width="6" stroke-linecap="round"/><path d="M340.44 790.55 q 64.19 -19.09 128.39 0 t 128.39 0" fill="none" stroke="#ffffff" stroke-opacity="0.26" stroke-width="6" stroke-linecap="round"/><path d="M116.05 830.55 q 114.82 -19.09 229.64 0 t 229.64 0" fill="none" stroke="#ffffff" stroke-opacity="0.26" stroke-width="6" stroke-linecap="round"/>
  
  <rect x="0" y="723.27" width="1600" height="92.73" rx="16.36" fill="#fbf8f2"/>
  <rect x="0" y="723.27" width="1600" height="21.82" fill="#ece4d6"/>
  
  <rect x="0" y="816" width="1600" height="384" fill="#fbf8f2"/>
  <rect x="0" y="816" width="1600" height="43.64" fill="#ece4d6"/>
  <path d="M228.57 859.64 V 1200" stroke="#4a3f31" stroke-opacity="0.07" stroke-width="5.45"/><path d="M457.14 859.64 V 1200" stroke="#4a3f31" stroke-opacity="0.07" stroke-width="5.45"/><path d="M685.71 859.64 V 1200" stroke="#4a3f31" stroke-opacity="0.07" stroke-width="5.45"/><path d="M914.29 859.64 V 1200" stroke="#4a3f31" stroke-opacity="0.07" stroke-width="5.45"/><path d="M1142.86 859.64 V 1200" stroke="#4a3f31" stroke-opacity="0.07" stroke-width="5.45"/><path d="M1371.43 859.64 V 1200" stroke="#4a3f31" stroke-opacity="0.07" stroke-width="5.45"/>
  <path d="M0 977.28 H 1600" stroke="#4a3f31" stroke-opacity="0.06" stroke-width="5.45"/>
  
  <g transform="translate(320 848.73) scale(1.89)">
    <rect x="-128" y="-118" width="136" height="120" rx="7" fill="#fbf8f2"/>
    <rect x="2" y="-84" width="120" height="86" rx="7" fill="#ece4d6"/>
    <rect x="-128" y="-124" width="136" height="12" rx="6" fill="#d9cdb9" opacity="0.55"/>
    <rect x="2" y="-90" width="120" height="10" rx="5" fill="#d9cdb9" opacity="0.45"/>
    <path d="M-98 2 v-52 a25 25 0 0 1 50 0 V2 Z" fill="#1f5468" opacity="0.34"/>
    <path d="M-98 2 v-52 a25 25 0 0 1 50 0 V2" fill="none" stroke="#ece4d6" stroke-width="4"/>
    <rect x="-32" y="-64" width="26" height="32" rx="3" fill="#1f5468" opacity="0.3"/>
    <rect x="28" y="-58" width="28" height="34" rx="3" fill="#1f5468" opacity="0.24"/>
    <rect x="80" y="-58" width="24" height="34" rx="3" fill="#1f5468" opacity="0.2"/>
    <path d="M-60 -124 v-16 M-72 -140 h24 M-60 -140 v-10" stroke="#8a6a3c" stroke-width="3.5" fill="none" opacity="0.6"/>
  </g>
  
  <g>
    <rect x="736" y="742.34" width="640" height="13.99" rx="4.66" fill="#9c7b51"/>
    <rect x="731.34" y="754" width="9.32" height="13.99" rx="2.33" fill="#9c7b51" opacity="0.92"/><rect x="771.34" y="754" width="9.32" height="13.99" rx="2.33" fill="#9c7b51" opacity="0.92"/><rect x="811.34" y="754" width="9.32" height="13.99" rx="2.33" fill="#9c7b51" opacity="0.92"/><rect x="851.34" y="754" width="9.32" height="13.99" rx="2.33" fill="#9c7b51" opacity="0.92"/><rect x="891.34" y="754" width="9.32" height="13.99" rx="2.33" fill="#9c7b51" opacity="0.92"/><rect x="931.34" y="754" width="9.32" height="13.99" rx="2.33" fill="#9c7b51" opacity="0.92"/><rect x="971.34" y="754" width="9.32" height="13.99" rx="2.33" fill="#9c7b51" opacity="0.92"/><rect x="1011.34" y="754" width="9.32" height="13.99" rx="2.33" fill="#9c7b51" opacity="0.92"/><rect x="1051.34" y="754" width="9.32" height="13.99" rx="2.33" fill="#9c7b51" opacity="0.92"/><rect x="1091.34" y="754" width="9.32" height="13.99" rx="2.33" fill="#9c7b51" opacity="0.92"/><rect x="1131.34" y="754" width="9.32" height="13.99" rx="2.33" fill="#9c7b51" opacity="0.92"/><rect x="1171.34" y="754" width="9.32" height="13.99" rx="2.33" fill="#9c7b51" opacity="0.92"/><rect x="1211.34" y="754" width="9.32" height="13.99" rx="2.33" fill="#9c7b51" opacity="0.92"/><rect x="1251.34" y="754" width="9.32" height="13.99" rx="2.33" fill="#9c7b51" opacity="0.92"/><rect x="1291.34" y="754" width="9.32" height="13.99" rx="2.33" fill="#9c7b51" opacity="0.92"/><rect x="1331.34" y="754" width="9.32" height="13.99" rx="2.33" fill="#9c7b51" opacity="0.92"/><rect x="1371.34" y="754" width="9.32" height="13.99" rx="2.33" fill="#9c7b51" opacity="0.92"/>
    <rect x="742.99" y="754" width="12.82" height="116.55" rx="3.5" fill="#9c7b51"/>
    <rect x="1356.19" y="754" width="12.82" height="116.55" rx="3.5" fill="#9c7b51"/>
    <path d="M742.99 770.31 h 626.01" stroke="#9c7b51" stroke-width="3.5" opacity="0.5"/>
  </g>
  
  <g transform="translate(832 1056) scale(1.63)">
    <path d="M0 0 h78 v10 h-78 Z" fill="#fbf8f2"/>
    <path d="M52 0 l24 -34 h13 l-21 34 Z" fill="#fbf8f2"/>
    <rect x="8" y="-5" width="46" height="6" rx="3" fill="#8a6a3c" opacity="0.35"/>
    <rect x="7" y="10" width="5" height="14" fill="#9c7b51"/>
    <rect x="66" y="10" width="5" height="14" fill="#9c7b51"/>
  </g>
  <g transform="translate(1007.74 1056) scale(1.63)">
    <path d="M0 0 h78 v10 h-78 Z" fill="#fbf8f2"/>
    <path d="M52 0 l24 -34 h13 l-21 34 Z" fill="#fbf8f2"/>
    
    <rect x="7" y="10" width="5" height="14" fill="#9c7b51"/>
    <rect x="66" y="10" width="5" height="14" fill="#9c7b51"/>
  </g>
  
  <g transform="translate(1280 1140) scale(1.17)">
    
    <rect x="-180" y="-20" width="360" height="20" rx="9" fill="#fbf8f2"/>
    <rect x="-176" y="0" width="352" height="6" rx="3" fill="#ece4d6"/>
    <rect x="-150" y="6" width="12" height="58" fill="#9c7b51"/>
    <rect x="138" y="6" width="12" height="58" fill="#9c7b51"/>
    <ellipse cx="-96" cy="-26" rx="34" ry="10" fill="#ece4d6"/>
    <ellipse cx="96" cy="-26" rx="34" ry="10" fill="#ece4d6"/>
    <path d="M-10 -26 v-34 a13 13 0 0 1 20 0 v34 Z" fill="#8a6a3c" opacity="0.5"/>
    <circle cx="0" cy="-70" r="8" fill="#fff3d8"/>
    <circle cx="0" cy="-70" r="20" fill="#fff3d8" opacity="0.22"/>
    <rect x="-46" y="-52" width="9" height="26" rx="4" fill="#1f5468" opacity="0.32"/>
    <rect x="38" y="-52" width="9" height="26" rx="4" fill="#1f5468" opacity="0.32"/>
  </g>
  
  <g transform="translate(656 897.82) scale(1.78)">
    <circle cx="-14" cy="-58" r="20" fill="#6f7f5c" opacity="0.85"/>
    <circle cx="14" cy="-64" r="22" fill="#4e5c40" opacity="0.75"/>
    <circle cx="0" cy="-82" r="17" fill="#6f7f5c" opacity="0.8"/>
    <path d="M-22 -38 h44 l-7 38 h-30 Z" fill="#8a6a3c" opacity="0.75"/>
    <rect x="-25" y="-42" width="50" height="8" rx="3" fill="#8a6a3c" opacity="0.85"/>
  </g>
  
  <g transform="translate(1520 1224) scale(2.64)">
    <path d="M-4 0 v-54 q -3 -18 8 -28 M-2 -34 l -16 -14 M0 -46 l 16 -12" fill="none" stroke="#9c7b51" stroke-width="8" stroke-linecap="round"/>
    <circle cx="-26" cy="-84" r="30" fill="#4e5c40" opacity="0.85"/>
    <circle cx="20" cy="-94" r="34" fill="#4e5c40" opacity="0.72"/>
    <circle cx="0" cy="-116" r="26" fill="#4e5c40" opacity="0.9"/>
    <circle cx="-42" cy="-108" r="19" fill="#4e5c40" opacity="0.7"/>
    <circle cx="38" cy="-70" r="18" fill="#4e5c40" opacity="0.78"/>
  </g>
  <g transform="translate(64 360) scale(1.78 1.78)"><circle cx="73.81" cy="-60.22" r="15.05" fill="#c76a7a" opacity="0.87"/><circle cx="-84.57" cy="-39.46" r="10.87" fill="#4e5c40" opacity="0.89"/><circle cx="-41.53" cy="-13.55" r="8.82" fill="#4e5c40" opacity="0.57"/><circle cx="7.19" cy="-90.32" r="6.2" fill="#c76a7a" opacity="0.65"/><circle cx="-79.31" cy="-129.18" r="6.04" fill="#4e5c40" opacity="0.52"/><circle cx="75.13" cy="-89.35" r="8.16" fill="#4e5c40" opacity="0.55"/><circle cx="-6.68" cy="-44.08" r="10.25" fill="#c76a7a" opacity="0.57"/><circle cx="-13.39" cy="-51.18" r="15.57" fill="#4e5c40" opacity="0.57"/><circle cx="64.88" cy="-14.3" r="6.9" fill="#4e5c40" opacity="0.68"/><circle cx="-4.52" cy="-73.57" r="13.94" fill="#c76a7a" opacity="0.52"/><circle cx="35.36" cy="-119.89" r="8.26" fill="#4e5c40" opacity="0.61"/><circle cx="46.32" cy="-57.23" r="18.41" fill="#4e5c40" opacity="0.87"/><circle cx="46.98" cy="-57.95" r="15.06" fill="#c76a7a" opacity="0.89"/><circle cx="30.54" cy="-124.44" r="6.87" fill="#4e5c40" opacity="0.75"/><circle cx="-58.99" cy="-13.2" r="6.19" fill="#4e5c40" opacity="0.59"/><circle cx="48.64" cy="-26.43" r="6.21" fill="#c76a7a" opacity="0.72"/><circle cx="-73.23" cy="-25.3" r="18.77" fill="#4e5c40" opacity="0.76"/><circle cx="-52.26" cy="-147.14" r="10.46" fill="#4e5c40" opacity="0.47"/><circle cx="-11.2" cy="-27.7" r="12.95" fill="#c76a7a" opacity="0.85"/><circle cx="65.03" cy="-31.82" r="6.36" fill="#4e5c40" opacity="0.76"/><circle cx="-24.15" cy="-99.91" r="6.96" fill="#4e5c40" opacity="0.7"/><circle cx="40.74" cy="-130.09" r="14.85" fill="#c76a7a" opacity="0.51"/><circle cx="52.12" cy="-131.13" r="14.62" fill="#4e5c40" opacity="0.85"/><circle cx="-78.01" cy="-139.43" r="17.74" fill="#4e5c40" opacity="0.54"/><circle cx="28.15" cy="-115.69" r="17.54" fill="#c76a7a" opacity="0.84"/><circle cx="-87.88" cy="-110.43" r="12.79" fill="#4e5c40" opacity="0.69"/></g>
  
  <g transform="translate(528 881.45) scale(1.32)">
    <circle cx="0" cy="-22" r="40" fill="#fff3d8" opacity="0.22"/>
    <rect x="-13" y="-36" width="26" height="36" rx="4" fill="none" stroke="#4a3f31" stroke-width="3.4" opacity="0.75"/>
    <path d="M-13 -36 h26 M0 -46 v10" stroke="#4a3f31" stroke-width="3.4" opacity="0.75" fill="none"/>
    <rect x="-7" y="-30" width="14" height="24" rx="3" fill="#fff3d8"/>
  </g></g>
  <rect width="1600" height="1200" fill="url(#veil)"/>
  <g>
    <g transform="translate(60.8 1152.12) scale(0.88)" fill="none" stroke="#ffffff" stroke-width="2.4" opacity="0.8">
    <path d="M0 -22 C 7 -9, 9 -7, 22 0 C 9 7, 7 9, 0 22 C -7 9, -9 7, -22 0 C -9 -7, -7 -9, 0 -22 Z"/>
    <circle cx="0" cy="0" r="6.5"/>
  </g>
    <text x="95" y="1165.8"
      font-family="Jost, Futura, 'Helvetica Neue', Helvetica, Arial, sans-serif"
      font-size="22.8" letter-spacing="5.93"
      fill="#ffffff" fill-opacity="0.82">SUITE TERRACE, AEGEAN VIEW</text>
  </g>
</svg>
