<svg xmlns="http://www.w3.org/2000/svg" viewBox="0 0 1600 1200" width="1600" height="1200" role="img" aria-label="Suite interior, placeholder artwork">
  <defs>
    <linearGradient id="sky" x1="0" y1="0" x2="0" y2="1">
      <stop offset="0%" stop-color="#efe7db"/>
      <stop offset="100%" stop-color="#f8f3ea"/>
    </linearGradient>
    <linearGradient id="sea" x1="0" y1="0" x2="0" y2="1">
      <stop offset="0%" stop-color="#7fa7b5"/>
      <stop offset="100%" stop-color="#5b8494"/>
    </linearGradient>
    <linearGradient id="water" x1="0" y1="0" x2="1" y2="1">
      <stop offset="0%" stop-color="#8fd0d8"/>
      <stop offset="100%" stop-color="#2f8ba0"/>
    </linearGradient>
    <radialGradient id="glow">
      <stop offset="0%" stop-color="#fff6e2" stop-opacity="0.6"/>
      <stop offset="100%" stop-color="#fff6e2" stop-opacity="0"/>
    </radialGradient>
    <linearGradient id="veil" x1="0" y1="0" x2="0" y2="1">
      <stop offset="0%" stop-color="#000000" stop-opacity="0.14"/>
      <stop offset="42%" stop-color="#000000" stop-opacity="0"/>
      <stop offset="100%" stop-color="#000000" stop-opacity="0.34"/>
    </linearGradient>
  </defs>
  
  <g>
  <rect width="1600" height="1200" fill="#f6f1e7"/>
  <rect x="0" y="0" width="1600" height="144" fill="#e7dccb" opacity="0.5"/>
  <path d="M0 24 H 1600" stroke="#a07d52" stroke-opacity="0.18" stroke-width="6"/><path d="M0 43.2 H 1600" stroke="#a07d52" stroke-opacity="0.18" stroke-width="6"/><path d="M0 62.4 H 1600" stroke="#a07d52" stroke-opacity="0.18" stroke-width="6"/><path d="M0 81.6 H 1600" stroke="#a07d52" stroke-opacity="0.18" stroke-width="6"/><path d="M0 100.8 H 1600" stroke="#a07d52" stroke-opacity="0.18" stroke-width="6"/><path d="M0 120 H 1600" stroke="#a07d52" stroke-opacity="0.18" stroke-width="6"/><path d="M0 139.2 H 1600" stroke="#a07d52" stroke-opacity="0.18" stroke-width="6"/>
  <rect x="0" y="888" width="1600" height="312" fill="#a07d52" opacity="0.3"/>
  <path d="M896 888 V 456 a 320 320 0 0 1 640 0 V 888 Z" fill="url(#sea)"/>
  <path d="M896 624 V 456 a 320 320 0 0 1 640 0 V 624 Z" fill="url(#sky)" opacity="0.92"/>
  <path d="M896 888 V 456 a 320 320 0 0 1 640 0 V 888" fill="none" stroke="#e7dccb" stroke-width="24.55"/>
  <g transform="translate(416 888) scale(2.33)">
    <rect x="-150" y="-190" width="300" height="120" rx="14" fill="#e7dccb"/>
    <rect x="-170" y="-86" width="340" height="86" rx="12" fill="#f6f1e7"/>
    <rect x="-170" y="-96" width="340" height="22" rx="10" fill="#e7dccb" opacity="0.7"/>
    <rect x="-130" y="-128" width="110" height="48" rx="14" fill="#f6f1e7"/>
    <rect x="16" y="-128" width="110" height="48" rx="14" fill="#f6f1e7"/>
    <rect x="-88" y="-118" width="176" height="30" rx="10" fill="#8a6a3c" opacity="0.3"/>
    <rect x="-230" y="-44" width="44" height="44" rx="8" fill="#a07d52" opacity="0.7"/>
    <rect x="186" y="-44" width="44" height="44" rx="8" fill="#a07d52" opacity="0.7"/>
    <circle cx="-208" cy="-58" r="14" fill="#fff6e2"/>
    <circle cx="208" cy="-58" r="14" fill="#fff6e2"/>
  </g>
  <rect x="64" y="956.64" width="832" height="187.2" rx="13.64" fill="#e7dccb" opacity="0.6"/>
  
  <g transform="translate(1536 1188) scale(2.02)">
    <circle cx="-14" cy="-58" r="20" fill="#6f7f5c" opacity="0.85"/>
    <circle cx="14" cy="-64" r="22" fill="#4e5c40" opacity="0.75"/>
    <circle cx="0" cy="-82" r="17" fill="#6f7f5c" opacity="0.8"/>
    <path d="M-22 -38 h44 l-7 38 h-30 Z" fill="#8a6a3c" opacity="0.75"/>
    <rect x="-25" y="-42" width="50" height="8" rx="3" fill="#8a6a3c" opacity="0.85"/>
  </g></g>
  <rect width="1600" height="1200" fill="url(#veil)"/>
  <g>
    <g transform="translate(60.8 1152.12) scale(0.88)" fill="none" stroke="#ffffff" stroke-width="2.4" opacity="0.8">
    <path d="M0 -22 C 7 -9, 9 -7, 22 0 C 9 7, 7 9, 0 22 C -7 9, -9 7, -22 0 C -9 -7, -7 -9, 0 -22 Z"/>
    <circle cx="0" cy="0" r="6.5"/>
  </g>
    <text x="95" y="1165.8"
      font-family="Jost, Futura, 'Helvetica Neue', Helvetica, Arial, sans-serif"
      font-size="22.8" letter-spacing="5.93"
      fill="#ffffff" fill-opacity="0.82">SUITE INTERIOR</text>
  </g>
</svg>
